<?xml version="1.0" encoding="UTF-8"?>
<svg version="1.1" xmlns="http://www.w3.org/2000/svg" width="568" height="703">
<path d="M0 0 C0.71875 2.109375 0.71875 2.109375 1 4 C-4.42007243 6.85652466 -9.65198192 8.97084277 -15.5 10.75 C-54.65011056 23.27169528 -82.00120262 53.59385357 -101 89 C-102.59379838 92.10111655 -104.12776476 95.22621366 -105.625 98.375 C-106.13957764 99.45454956 -106.13957764 99.45454956 -106.66455078 100.5559082 C-108.04127351 103.53856832 -109 105.67611456 -109 109 C-107.69289062 107.58460938 -107.69289062 107.58460938 -106.359375 106.140625 C-85.75179238 83.89317397 -85.75179238 83.89317397 -74.68359375 75.1328125 C-72.93885881 73.74616726 -71.22046854 72.32547674 -69.53515625 70.8671875 C-61.02031341 63.54625945 -51.62855735 57.73600832 -42 52 C-41.1553418 51.49533203 -40.31068359 50.99066406 -39.44042969 50.47070312 C-16.52637253 36.95706182 8.11258024 27.92090482 34 22 C35.38759521 21.66548828 35.38759521 21.66548828 36.80322266 21.32421875 C50.77367881 18.04946146 64.65557609 17.61614148 78.9375 17.5625 C79.8053714 17.55614532 80.6732428 17.54979065 81.56741333 17.54324341 C96.62958212 17.47463239 110.92026185 19.20892808 125.4375 23.375 C126.55306274 23.69307617 126.55306274 23.69307617 127.69116211 24.01757812 C140.11261318 27.69158568 140.11261318 27.69158568 144 31 C144.74609375 33.65625 144.74609375 33.65625 145 36 C138.2940782 40.19120112 128.6906629 39.20776751 121.0625 39.4375 C89.07763479 40.61653719 59.3001123 47.67120145 31 63 C30.16090088 63.44432373 29.32180176 63.88864746 28.45727539 64.34643555 C22.02589049 67.78626829 15.87211664 71.50546214 9.8125 75.5625 C8.45511719 76.47104736 8.45511719 76.47104736 7.0703125 77.39794922 C-8.90427947 88.23825325 -24.79594263 100.94031344 -37 116 C-37.58523438 116.69738281 -38.17046875 117.39476562 -38.7734375 118.11328125 C-54.99491237 136.35632502 -54.99491237 136.35632502 -63 158 C-60.92227529 158.86772029 -58.83756823 159.71873619 -56.75 160.5625 C-55.58984375 161.03816406 -54.4296875 161.51382813 -53.234375 162.00390625 C-49.91900297 163.02494474 -49.11426406 163.11866095 -46 162 C-44.30145637 160.89836143 -44.30145637 160.89836143 -42.70703125 159.48046875 C-41.77491821 158.69796753 -41.77491821 158.69796753 -40.82397461 157.8996582 C-40.16018799 157.334646 -39.49640137 156.76963379 -38.8125 156.1875 C-30.52807392 149.29985007 -21.8946982 143.07017424 -13 137 C-12.36739258 136.5659082 -11.73478516 136.13181641 -11.08300781 135.68457031 C-3.12326815 130.2371104 5.00885526 125.1553904 13.27978516 120.1953125 C19.15376195 116.62657061 24.69891415 112.72144588 30.14257812 108.52758789 C35.74668702 104.25214897 39.86567099 102.33941398 47 103 C50.93195918 106.09676976 51.42636312 110.25793516 52 115 C53.32742992 136.42197257 47.38841143 159.25536551 33.5078125 176.0078125 C31.0589525 178.73280508 28.56762141 181.38697049 26 184 C25.154375 184.87140625 24.30875 185.7428125 23.4375 186.640625 C18.43902067 191.47889666 12.563402 194.75028415 6.41601562 197.91723633 C-4.90712997 203.38826413 -4.90712997 203.38826413 -12.25 213.0625 C-11.71430292 219.35694064 -6.03950968 224.43076796 -2 229 C-0.83418605 230.33033551 0.33116827 231.66107392 1.49609375 232.9921875 C2.37563721 233.99523926 2.37563721 233.99523926 3.27294922 235.01855469 C5.39934538 237.45816894 7.49504702 239.92278119 9.58911133 242.39013672 C15.01705802 248.78135283 20.61771888 254.98158243 26.33203125 261.1171875 C28.97196092 263.96970301 31.5317631 266.87481697 34.06640625 269.8203125 C35.71412309 271.67773875 37.3903662 273.49495984 39.08984375 275.3046875 C39.64027344 275.8925 40.19070313 276.4803125 40.7578125 277.0859375 C41.86424471 278.26441646 42.97483309 279.4390092 44.08984375 280.609375 C48 284.77887835 48 284.77887835 48 287 C48.66 287 49.32 287 50 287 C51.47401428 288.49278259 51.47401428 288.49278259 53.17602539 290.54272461 C56.67624791 294.65654951 60.35947948 298.5048408 64.18359375 302.31640625 C64.84279312 302.97656235 65.50199249 303.63671844 66.1811676 304.31687927 C67.56396835 305.70035506 68.94801076 307.08259083 70.33325195 308.46362305 C72.43230343 310.55731669 74.5259594 312.65629874 76.61914062 314.75585938 C77.97363786 316.10969571 79.32844531 317.46322175 80.68359375 318.81640625 C81.60584999 319.74169884 81.60584999 319.74169884 82.54673767 320.6856842 C109.17648138 347.17492762 136.59539805 362.73623938 174 368 C176.53605769 377.66871993 176.23210245 387.08904281 176 397 C175.97897217 398.27786377 175.97897217 398.27786377 175.95751953 399.58154297 C174.59703952 474.32378999 152.7740985 556.82984957 100.43945312 612.27075195 C97.9194637 614.915693 97.9194637 614.915693 96 618 C95.34 618 94.68 618 94 618 C93.76925781 618.56460938 93.53851563 619.12921875 93.30078125 619.7109375 C88.15236235 628.7709179 76.31438304 635.8973484 68 642 C67.41831055 642.42796875 66.83662109 642.8559375 66.23730469 643.296875 C64.50037255 644.5649596 62.75308273 645.81686215 61 647.0625 C59.96875 647.79597656 58.9375 648.52945313 57.875 649.28515625 C55.08303727 650.95047098 53.15220645 651.46634047 50 652 C49.47998413 651.06486572 49.47998413 651.06486572 48.94946289 650.11083984 C39.18949765 632.59808356 29.08300039 616.14868957 16.78857422 600.31542969 C-10.17782843 565.40560676 -33.3651621 529.10585573 -52.875 489.5 C-54.04349815 487.14284597 -55.21276722 484.78607395 -56.3828125 482.4296875 C-58.60863446 477.94434344 -60.83099016 473.45731763 -63.04931641 468.96826172 C-65.5517632 463.90494797 -68.05829262 458.8437484 -70.578125 453.7890625 C-71.15723633 452.62584473 -71.73634766 451.46262695 -72.33300781 450.26416016 C-77.33180604 440.47594511 -82.95863474 431.42352825 -89.4296875 422.5625 C-92.05206088 418.95996735 -94.53883476 415.27645531 -97 411.5625 C-97.40943848 410.94721436 -97.81887695 410.33192871 -98.24072266 409.69799805 C-100.3991699 406.44592058 -102.53139703 403.1787452 -104.640625 399.89453125 C-105.07761719 399.22156006 -105.51460937 398.54858887 -105.96484375 397.85522461 C-106.79328551 396.57872554 -107.61421001 395.29730062 -108.42578125 394.01000977 C-111.55140121 389.21496439 -114.88873744 384.95358944 -120.57446289 383.2109375 C-125.35603653 382.91649807 -129.32342837 384.15132706 -133.88671875 385.4921875 C-134.82554398 385.75758331 -135.7643692 386.02297913 -136.73164368 386.29641724 C-139.72038318 387.14433047 -142.70382272 388.00946175 -145.6875 388.875 C-147.70605988 389.4503438 -149.72493725 390.02457494 -151.74414062 390.59765625 C-160.9131844 393.16408597 -160.9131844 393.16408597 -170 396 C-170.24941362 403.83713021 -169.4340596 411.36082496 -168.4375 419.125 C-165.75326198 441.78033616 -167.45521711 465.77986532 -181 485 C-181.99 484.67 -182.98 484.34 -184 484 C-184 472.45 -184 460.9 -184 449 C-184.66 449 -185.32 449 -186 449 C-185.95359375 449.58523438 -185.9071875 450.17046875 -185.859375 450.7734375 C-184.89491823 473.71373058 -195.43864017 494.45437448 -209.10546875 512.1015625 C-211.11461113 514.11484744 -212.2199591 514.64247811 -215 515 C-214.39172088 510.65514916 -213.72918276 506.32607587 -213 502 C-213.87011719 503.28583984 -213.87011719 503.28583984 -214.7578125 504.59765625 C-228.85648448 525.30072975 -228.85648448 525.30072975 -237.9375 527.8125 C-238.618125 527.874375 -239.29875 527.93625 -240 528 C-239.35344745 523.49999424 -237.59222166 519.70258135 -235.6875 515.625 C-232.19997418 507.90433939 -229.85655352 500.28452022 -228 492 C-227.77441406 490.9996875 -227.54882812 489.999375 -227.31640625 488.96875 C-226.08647383 482.92935772 -225.75970759 477.15415571 -226 471 C-226.37511719 471.59167969 -226.75023437 472.18335938 -227.13671875 472.79296875 C-234.50346741 484.16782247 -234.50346741 484.16782247 -240 486 C-239.5040912 480.71204617 -238.76839661 475.71961714 -237.48852539 470.57055664 C-233.83406046 455.59486054 -232.57550035 438.69714863 -238 424 C-238.30164063 423.16210938 -238.60328125 422.32421875 -238.9140625 421.4609375 C-241.04301778 416.14720359 -243.6813221 411.65933895 -249 409 C-256.66333508 408.56354515 -264.04131363 408.89456495 -271.625 410.0625 C-286.77712163 412.25868864 -299.95145047 409.38280076 -312.65625 400.78515625 C-317.00032512 397.47641904 -319.55427685 394.1046638 -321.6875 389.0625 C-323.85832382 384.35306815 -327.48563155 382.40844103 -331.71484375 379.63671875 C-334.83376759 377.40282287 -335.98319809 375.70406409 -337 372 C-337.60878031 366.8522253 -337.30344557 362.4857152 -335.5 357.625 C-333.67918714 352.36301787 -333.96110921 347.4835752 -334.125 342 C-334.28535818 334.12662907 -333.89746769 328.47692942 -329 322 C-328.31035156 321.07960938 -327.62070312 320.15921875 -326.91015625 319.2109375 C-322.71875559 313.89466521 -318.2827195 308.2876366 -313 304 C-312.34 304 -311.68 304 -311 304 C-311 303.34 -311 302.68 -311 302 C-309.49609375 300.53491211 -309.49609375 300.53491211 -307.4375 298.83984375 C-303.3090885 295.3261672 -299.6550243 291.55793603 -296 287.5625 C-287.83978988 278.75116118 -279.35051294 270.28825943 -270.81054688 261.84790039 C-270.30043564 261.34198364 -269.7903244 260.83606689 -269.26475525 260.31481934 C-267.86612905 258.92794848 -266.46452672 257.54408085 -265.06274414 256.16040039 C-262.96527815 254.17573272 -262.96527815 254.17573272 -262 252 C-261.34 252 -260.68 252 -260 252 C-259.73703125 251.40703125 -259.4740625 250.8140625 -259.203125 250.203125 C-257.94597491 247.90107093 -256.66412082 246.52616617 -254.75 244.75 C-247.99923055 238.18244558 -243.37507609 231.88480985 -242.0703125 222.39453125 C-241.91433594 221.32783203 -241.75835937 220.26113281 -241.59765625 219.16210938 C-241.28540603 216.94926173 -240.97802133 214.73572145 -240.67578125 212.52148438 C-239.74967209 206.25330651 -238.42682462 200.86634367 -235.70263672 195.12768555 C-234.8684989 192.60179565 -234.99288191 191.44202713 -236 189 C-238.42174659 186.92130041 -238.42174659 186.92130041 -241.4375 184.9375 C-258.01884077 173.08344759 -272.46379099 152.77217504 -278 133 C-278.23046875 130.48046875 -278.23046875 130.48046875 -278.1875 128.1875 C-278.18105469 127.41792969 -278.17460937 126.64835938 -278.16796875 125.85546875 C-278 124 -278 124 -277 123 C-271.69671184 122.3898872 -268.67797285 124.09914717 -264.375 126.875 C-248.9076427 136.16062475 -230.81250464 141.0076416 -213.625 146.125 C-212.14676758 146.56803467 -212.14676758 146.56803467 -210.63867188 147.02001953 C-203.92462954 149.04262913 -203.92462954 149.04262913 -197 149 C-195.38443016 147.52603372 -195.38443016 147.52603372 -194.3125 145.4375 C-190.19039952 139.30329243 -183.80863446 135.44904345 -176.9609375 132.84375 C-172.69585608 130.18792093 -171.2698622 126.75109434 -169.125 122.3125 C-168.69501709 121.46179932 -168.26503418 120.61109863 -167.82202148 119.73461914 C-165.83141903 115.78180401 -163.90224847 111.79937691 -161.96484375 107.8203125 C-154.38640895 92.30965373 -145.38221314 77.79155375 -135 64 C-134.34257812 63.11699219 -133.68515625 62.23398438 -133.0078125 61.32421875 C-122.29734931 47.5923214 -109.33530109 34.88598718 -95 25 C-94.08395996 24.3500708 -94.08395996 24.3500708 -93.14941406 23.68701172 C-70.45493608 7.6783882 -28.00998105 -14.00499053 0 0 Z " fill="#F1A523" transform="translate(362,31)"/>
<path d="M0 0 C0.71875 2.109375 0.71875 2.109375 1 4 C-4.42007243 6.85652466 -9.65198192 8.97084277 -15.5 10.75 C-37.57105605 17.80916368 -55.97665823 30.36299833 -72 47 C-72.66 46.67 -73.32 46.34 -74 46 C-72.25 42.125 -72.25 42.125 -70 41 C-70 40.34 -70 39.68 -70 39 C-69.278125 38.773125 -68.55625 38.54625 -67.8125 38.3125 C-64.40835541 36.72389919 -62.63033337 34.69011368 -60 32 C-57.62602154 30.14245193 -55.22093121 28.33709621 -52.79296875 26.55078125 C-51.90544922 25.78314453 -51.90544922 25.78314453 -51 25 C-51 24.34 -51 23.68 -51 23 C-50.01 23 -49.02 23 -48 23 C-48 22.34 -48 21.68 -48 21 C-39.92537438 14.7674943 -31.06352994 10.54823538 -21 9 C-20.67 8.34 -20.34 7.68 -20 7 C-17.66200551 6.23657323 -15.38220728 5.58875845 -13 5 C-12.26007813 4.81179687 -11.52015625 4.62359375 -10.7578125 4.4296875 C-8.84051528 3.94524585 -6.92047288 3.47169509 -5 3 C-15.51986241 -2.25993121 -29.99266613 2.36113523 -41 4.4375 C-42.19625 4.66308594 -43.3925 4.88867188 -44.625 5.12109375 C-48.01036742 5.87751691 -48.01036742 5.87751691 -50.9375 7.47265625 C-53.90839098 8.95431234 -56.66787167 9.63825797 -59.88525391 10.37890625 C-63.75989705 11.51687579 -67.17811834 13.53675342 -70.6875 15.5 C-72.14848048 16.30437448 -73.61068976 17.10652181 -75.07421875 17.90625 C-75.75532715 18.28136719 -76.43643555 18.65648438 -77.13818359 19.04296875 C-79 20 -79 20 -81.76953125 20.96875 C-84.73870412 22.34153745 -85.97346029 24.46584918 -88 27 C-90.55859375 28.37890625 -90.55859375 28.37890625 -93.4375 29.5625 C-101.31951397 33.29709615 -106.89547429 38.91872225 -113 45 C-113.96655681 45.94232114 -114.93396781 46.88376714 -115.90234375 47.82421875 C-123.08889497 54.70998068 -123.08889497 54.70998068 -128.4375 63 C-130.17950385 66.34464739 -132.31381138 68.38268801 -135 71 C-135.33 71.66 -135.66 72.32 -136 73 C-137 75 -137 75 -139.625 77.5625 C-142.34893236 79.7909084 -142.34893236 79.7909084 -142 83 C-143 86 -143 86 -145.3046875 87.68359375 C-148.80987375 90.69602193 -150.23459804 93.91183483 -152.125 98.0625 C-152.78862336 99.49351795 -153.45771742 100.92201429 -154.1328125 102.34765625 C-154.42043457 102.97679932 -154.70805664 103.60594238 -155.00439453 104.25415039 C-156.10341496 106.1813439 -157.42809942 107.44711645 -159 109 C-161.97727661 115.08400003 -163.91872117 121.5659959 -166 128 C-166.66 128 -167.32 128 -168 128 C-168.37125 129.36125 -168.37125 129.36125 -168.75 130.75 C-170.10350746 134.26911941 -170.89359772 135.87456686 -174 138 C-176.75761218 138.32753248 -179.20591642 138.18627224 -182 138 C-182 138.66 -182 139.32 -182 140 C-182.66 140 -183.32 140 -184 140 C-184.35578125 140.82564453 -184.35578125 140.82564453 -184.71875 141.66796875 C-187.46221127 146.66140283 -191.41854169 150.65868398 -196 154 C-199.66490075 154.75864003 -202.46668439 154.1101486 -206 153 C-206.79792969 152.75636719 -207.59585938 152.51273438 -208.41796875 152.26171875 C-209.93669935 151.76565097 -211.44795021 151.24586182 -212.94921875 150.69921875 C-215.59272865 149.79790776 -218.23489781 149.35450028 -221 149 C-221 148.34 -221 147.68 -221 147 C-222.07314453 146.87044922 -222.07314453 146.87044922 -223.16796875 146.73828125 C-230.21906426 145.74401293 -236.4093723 143.92446853 -242.9921875 141.21875 C-245.96235123 140.01525508 -248.95474885 138.99523571 -252 138 C-253.67163195 137.34588315 -255.34015202 136.68346682 -257 136 C-257 135.34 -257 134.68 -257 134 C-257.680625 133.9175 -258.36125 133.835 -259.0625 133.75 C-262.8746907 132.77667472 -265.64070329 131.04192545 -269 129 C-269 128.34 -269 127.68 -269 127 C-270.65 127 -272.3 127 -274 127 C-273.38504727 129.81505058 -272.75862099 132.62664944 -272.125 135.4375 C-271.95097656 136.23994141 -271.77695312 137.04238281 -271.59765625 137.86914062 C-271.12849487 139.9282378 -270.57027241 141.96658343 -270 144 C-269.34 144.33 -268.68 144.66 -268 145 C-265 150.42307692 -265 150.42307692 -265 153 C-264.34 153 -263.68 153 -263 153 C-262.75507813 153.52207031 -262.51015625 154.04414063 -262.2578125 154.58203125 C-259.06316847 160.87217518 -254.86714843 165.67512039 -250.01171875 170.71484375 C-248 173 -248 173 -248 175 C-247.34 175 -246.68 175 -246 175 C-246 175.66 -246 176.32 -246 177 C-245.4225 177.061875 -244.845 177.12375 -244.25 177.1875 C-241.08035652 178.33209348 -240.00579772 180.32560305 -238 183 C-236.35216394 184.68528688 -234.68997323 186.35697047 -233 188 C-247.63124554 185.19827213 -257.58797221 170.39900983 -265.56640625 158.8046875 C-271.260018 150.17251051 -278.38521266 138.73816666 -278.1875 128.1875 C-278.18105469 127.41792969 -278.17460937 126.64835938 -278.16796875 125.85546875 C-278 124 -278 124 -277 123 C-271.69671184 122.3898872 -268.67797285 124.09914717 -264.375 126.875 C-248.9076427 136.16062475 -230.81250464 141.0076416 -213.625 146.125 C-212.14676758 146.56803467 -212.14676758 146.56803467 -210.63867188 147.02001953 C-203.92462954 149.04262913 -203.92462954 149.04262913 -197 149 C-195.38443016 147.52603372 -195.38443016 147.52603372 -194.3125 145.4375 C-190.19039952 139.30329243 -183.80863446 135.44904345 -176.9609375 132.84375 C-172.69585608 130.18792093 -171.2698622 126.75109434 -169.125 122.3125 C-168.69501709 121.46179932 -168.26503418 120.61109863 -167.82202148 119.73461914 C-165.83141903 115.78180401 -163.90224847 111.79937691 -161.96484375 107.8203125 C-154.38640895 92.30965373 -145.38221314 77.79155375 -135 64 C-134.34257812 63.11699219 -133.68515625 62.23398438 -133.0078125 61.32421875 C-122.29734931 47.5923214 -109.33530109 34.88598718 -95 25 C-94.08395996 24.3500708 -94.08395996 24.3500708 -93.14941406 23.68701172 C-70.45493608 7.6783882 -28.00998105 -14.00499053 0 0 Z " fill="#DC9E2D" transform="translate(362,31)"/>
<path d="M0 0 C3.63 0 7.26 0 11 0 C11 0.66 11 1.32 11 2 C11.99 2 12.98 2 14 2 C14 2.66 14 3.32 14 4 C14.9590625 4.4021875 14.9590625 4.4021875 15.9375 4.8125 C18 6 18 6 19 9 C19.66 9 20.32 9 21 9 C22.5078125 11.1171875 22.5078125 11.1171875 24.125 13.875 C24.66382813 14.77992188 25.20265625 15.68484375 25.7578125 16.6171875 C27 19 27 19 27 21 C27.66 21 28.32 21 29 21 C29.495 23.475 29.495 23.475 30 26 C30.66 26 31.32 26 32 26 C35 31.75 35 31.75 35 34 C35.78375 34.20625 36.5675 34.4125 37.375 34.625 C40 36 40 36 41.1875 39.0625 C41.5896875 40.5165625 41.5896875 40.5165625 42 42 C42.66 42.33 43.32 42.66 44 43 C44.4125 43.845625 44.825 44.69125 45.25 45.5625 C47.02919907 49.05735532 49.08850283 51.90176532 51.5 54.97265625 C54.54588274 59.08935715 56.84399853 63.55153473 59.125 68.125 C59.64320313 69.15882813 60.16140625 70.19265625 60.6953125 71.2578125 C62 74 62 74 63 77 C63.66 77.33 64.32 77.66 65 78 C65.4021875 79.2375 65.4021875 79.2375 65.8125 80.5 C66.79331241 83.39081553 67.78632432 85.47277064 69.3125 88.0625 C72.03349149 92.79431218 73.84345034 97.72210521 75.73046875 102.83203125 C77.21270652 106.53078457 79.02770295 109.88594428 81.08203125 113.29296875 C82 115 82 115 82 117 C82.66 117 83.32 117 84 117 C84.38671875 118.29744141 84.38671875 118.29744141 84.78125 119.62109375 C86.02889356 123.08010553 87.59001303 125.92639851 89.5 129.0625 C92.67599649 134.29078236 94.96264677 138.94877282 96 145 C96.66 145 97.32 145 98 145 C98.9765625 146.79036458 99.953125 148.58072917 100.9296875 150.37109375 C101.91410024 152.16618315 101.91410024 152.16618315 104 153 C104 154.65 104 156.3 104 158 C104.66 158 105.32 158 106 158 C106.4021875 159.7015625 106.4021875 159.7015625 106.8125 161.4375 C107.204375 162.613125 107.59625 163.78875 108 165 C108.99 165.33 109.98 165.66 111 166 C111 166.99 111 167.98 111 169 C111.99 169.33 112.98 169.66 114 170 C114.97322683 171.61085819 115.93605981 173.22953612 116.828125 174.88671875 C118.14645868 177.26411381 119.57674637 179.53606065 121.0625 181.8125 C121.54847656 182.56144531 122.03445313 183.31039062 122.53515625 184.08203125 C124.03006852 186.25445397 124.03006852 186.25445397 127 188 C129.1923561 191.85854674 130.68992216 195.76744083 132 200 C132.66 200 133.32 200 134 200 C135.3440093 201.99284138 136.67541292 203.99419671 138 206 C138.845625 206.845625 139.69125 207.69125 140.5625 208.5625 C142.91973028 210.91973028 144.48259487 213.04505317 146 216 C146 216.66 146 217.32 146 218 C146.66 218 147.32 218 148 218 C148 218.99 148 219.98 148 221 C148.66 221 149.32 221 150 221 C154 225.47058824 154 225.47058824 154 228 C154.61875 228.061875 155.2375 228.12375 155.875 228.1875 C158 229 158 229 159.25 231.5625 C159.4975 232.366875 159.745 233.17125 160 234 C160.66 234 161.32 234 162 234 C162.99 238.455 162.99 238.455 164 243 C164.66 243 165.32 243 166 243 C166.433125 244.093125 166.86625 245.18625 167.3125 246.3125 C168.24294447 248.50694451 168.86545141 249.86545141 170.5625 251.5625 C172.69137587 253.69137587 173.17855615 256.15654051 174 259 C174.66 259 175.32 259 176 259 C176.25394531 259.62648438 176.50789062 260.25296875 176.76953125 260.8984375 C177.11371094 261.71570313 177.45789063 262.53296875 177.8125 263.375 C178.14894531 264.18710937 178.48539063 264.99921875 178.83203125 265.8359375 C179.94439082 268.30147458 179.94439082 268.30147458 183 270 C181.35 270.33 179.7 270.66 178 271 C176.02 267.04 174.04 263.08 172 259 C171.34 259 170.68 259 170 259 C169.52691406 258.14019531 169.05382812 257.28039062 168.56640625 256.39453125 C161.91591445 244.44852997 154.25291861 233.50113709 145.859375 222.69921875 C118.46265915 187.37548462 94.89604491 150.63611781 75.125 110.5 C73.95650185 108.14284597 72.78723278 105.78607395 71.6171875 103.4296875 C69.39136554 98.94434344 67.16900984 94.45731763 64.95068359 89.96826172 C62.4482368 84.90494797 59.94170738 79.8437484 57.421875 74.7890625 C56.84276367 73.62584473 56.26365234 72.46262695 55.66699219 71.26416016 C50.66819396 61.47594511 45.04136526 52.42352825 38.5703125 43.5625 C35.94793912 39.95996735 33.46116524 36.27645531 31 32.5625 C30.59056152 31.94721436 30.18112305 31.33192871 29.75927734 30.69799805 C27.6008301 27.44592058 25.46860297 24.1787452 23.359375 20.89453125 C22.92238281 20.22156006 22.48539062 19.54858887 22.03515625 18.85522461 C21.20671449 17.57872554 20.38578999 16.29730062 19.57421875 15.01000977 C16.44859879 10.21496439 13.11126256 5.95358944 7.42553711 4.2109375 C2.64396347 3.91649807 -1.32342837 5.15132706 -5.88671875 6.4921875 C-7.29495659 6.89028122 -7.29495659 6.89028122 -8.73164368 7.29641724 C-11.72038318 8.14433047 -14.70382272 9.00946175 -17.6875 9.875 C-19.70605988 10.4503438 -21.72493725 11.02457494 -23.74414062 11.59765625 C-32.9131844 14.16408597 -32.9131844 14.16408597 -42 17 C-42.24941362 24.83713021 -41.4340596 32.36082496 -40.4375 40.125 C-37.75326198 62.78033616 -39.45521711 86.77986532 -53 106 C-53.99 105.67 -54.98 105.34 -56 105 C-55.99476318 104.05680908 -55.98952637 103.11361816 -55.98413086 102.1418457 C-55.96704689 98.62881861 -55.95452934 95.11583593 -55.94506836 91.6027832 C-55.94005234 90.08487245 -55.93323797 88.5669665 -55.92456055 87.04907227 C-55.91237503 84.86212984 -55.90674428 82.67525154 -55.90234375 80.48828125 C-55.89710693 79.17384033 -55.89187012 77.85939941 -55.88647461 76.50512695 C-55.90090632 73.09349479 -55.90090632 73.09349479 -56.56469727 70.17651367 C-57.1103899 67.44805052 -56.4533061 66.30819204 -55 64 C-54.67 65.32 -54.34 66.64 -54 68 C-53.34 68 -52.68 68 -52 68 C-51.67 77.24 -51.34 86.48 -51 96 C-50.34 96 -49.68 96 -49 96 C-48.79503906 95.30132812 -48.59007812 94.60265625 -48.37890625 93.8828125 C-48.10949219 92.97273438 -47.84007812 92.06265625 -47.5625 91.125 C-47.29566406 90.22007812 -47.02882812 89.31515625 -46.75390625 88.3828125 C-46 86 -46 86 -45 84 C-42.90428609 68.06222505 -43.91243537 51.97546303 -45.28833008 36.03442383 C-46.80605937 18.32848311 -46.80605937 18.32848311 -43 13 C-39.27169454 11.21689739 -36.1045244 10.75855739 -32 11 C-32 10.34 -32 9.68 -32 9 C-28.33501852 6.55667902 -24.88296679 6.15451854 -20.625 5.5 C-15.78658156 4.74864151 -11.54298699 3.88820418 -7 2 C-4.6679198 1.92353835 -2.33154122 1.90856701 0 2 C0 1.34 0 0.68 0 0 Z " fill="#DB9F2B" transform="translate(234,410)"/>
<path d="M0 0 C0.8678714 -0.00635468 1.7357428 -0.01270935 2.62991333 -0.01925659 C17.69208212 -0.08786761 31.98276185 1.64642808 46.5 5.8125 C47.2437085 6.02455078 47.98741699 6.23660156 48.75366211 6.45507812 C61.17511318 10.12908568 61.17511318 10.12908568 65.0625 13.4375 C65.80859375 16.09375 65.80859375 16.09375 66.0625 18.4375 C59.3565782 22.62870112 49.7531629 21.64526751 42.125 21.875 C6.18663686 23.1997724 -25.45873578 32.69369224 -56.80078125 50.30859375 C-60.40554866 52.21312352 -63.9444454 52.81635817 -67.9375 53.4375 C-67.9375 52.7775 -67.9375 52.1175 -67.9375 51.4375 C-63.69825799 48.37535135 -59.03270667 45.78324698 -54.1875 43.8125 C-50.91686634 42.56122453 -50.91686634 42.56122453 -48.25 40.5625 C-42.10528985 36.62061047 -35.16008556 33.643473 -27.9375 32.4375 C-27.9375 31.7775 -27.9375 31.1175 -27.9375 30.4375 C-26.2359375 29.9734375 -26.2359375 29.9734375 -24.5 29.5 C-21.14974901 28.80825469 -21.14974901 28.80825469 -19.9375 27.4375 C-18.74125 27.19 -17.545 26.9425 -16.3125 26.6875 C-12.59382099 25.9117883 -9.07999327 24.82900026 -5.49975586 23.56054688 C1.39799708 21.11960292 7.73719439 19.73262023 15.0625 19.4375 C17.27157801 19.28101277 19.47995576 19.11431155 21.6875 18.9375 C22.69039062 18.8653125 23.69328125 18.793125 24.7265625 18.71875 C27.0192311 18.6866057 27.0192311 18.6866057 28.0625 17.4375 C30.50858998 17.27769563 32.92981058 17.17820553 35.37890625 17.12109375 C36.47548805 17.0899221 36.47548805 17.0899221 37.59422302 17.05812073 C39.93771656 16.99254976 42.28132539 16.93370568 44.625 16.875 C46.21029855 16.83182192 47.79558529 16.78820787 49.38085938 16.74414062 C53.27462037 16.6368608 57.16849772 16.5356151 61.0625 16.4375 C61.0625 15.7775 61.0625 15.1175 61.0625 14.4375 C60.299375 14.499375 59.53625 14.56125 58.75 14.625 C56.0625 14.4375 56.0625 14.4375 54.6875 12.875 C53.883125 12.1634375 53.883125 12.1634375 53.0625 11.4375 C49.41708155 11.67227199 49.41708155 11.67227199 46.0625 12.4375 C45.7325 11.4475 45.4025 10.4575 45.0625 9.4375 C43.5465625 9.23640625 43.5465625 9.23640625 42 9.03125 C37.12978031 8.29685179 32.36741573 7.22877583 27.5625 6.15625 C11.49431406 2.85653325 -5.35851428 4.1696458 -21.625 5.25 C-22.75703857 5.32001221 -23.88907715 5.39002441 -25.05541992 5.4621582 C-38.47067688 5.94582693 -38.47067688 5.94582693 -49.9375 11.4375 C-52.03133114 11.77917119 -54.13926105 12.03634344 -56.25 12.25 C-62.63560544 13.07437119 -68.04347444 14.75302213 -73.97265625 17.2109375 C-76.52616743 18.26733079 -79.05454428 19.16950097 -81.6875 20 C-89.96664142 22.58308236 -89.96664142 22.58308236 -96.9375 27.4375 C-98.41744743 28.08924608 -99.92178954 28.68640513 -101.4375 29.25 C-106.09673521 31.04461821 -110.4883807 33.16359556 -114.90625 35.484375 C-116.9375 36.4375 -116.9375 36.4375 -118.9375 36.4375 C-118.9375 37.0975 -118.9375 37.7575 -118.9375 38.4375 C-119.989375 38.829375 -121.04125 39.22125 -122.125 39.625 C-125.88858194 41.23472481 -128.14168716 43.42662463 -130.9375 46.4375 C-136.29172343 51.4375 -136.29172343 51.4375 -139.9375 51.4375 C-140.14375 52.200625 -140.35 52.96375 -140.5625 53.75 C-142.40607382 57.35334883 -144.26497575 57.805267 -147.9375 59.4375 C-155.1185887 63.08095764 -159.74431651 68.38709237 -164.9375 74.4375 C-167.17716728 76.89822535 -169.27339059 79.05883103 -172.19140625 80.72265625 C-175.50345568 82.79092041 -178.28086294 85.28672208 -181.125 87.9375 C-181.92454102 88.66646484 -181.92454102 88.66646484 -182.74023438 89.41015625 C-185.16049617 91.64471243 -187.10121412 93.68307119 -188.9375 96.4375 C-191.5625 96.625 -191.5625 96.625 -193.9375 96.4375 C-185.76875431 76.2497718 -176.3915705 57.62378397 -162.9375 40.4375 C-162.19628906 39.47328125 -161.45507812 38.5090625 -160.69140625 37.515625 C-159.11959025 35.47890568 -157.53729294 33.4522563 -155.9375 31.4375 C-154.9475 31.7675 -153.9575 32.0975 -152.9375 32.4375 C-153.68410889 33.24018311 -153.68410889 33.24018311 -154.44580078 34.05908203 C-159.42232395 39.51640593 -163.7519097 45.14875009 -167.8125 51.3125 C-168.4111084 52.21726074 -169.0097168 53.12202148 -169.62646484 54.05419922 C-177.47407843 66.10566675 -184.61192225 78.66512054 -188.9375 92.4375 C-188.54594727 92.0156543 -188.15439453 91.59380859 -187.75097656 91.15917969 C-164.63069715 66.28429647 -164.63069715 66.28429647 -153.62109375 57.5703125 C-151.87635881 56.18366726 -150.15796854 54.76297674 -148.47265625 53.3046875 C-139.95781341 45.98375945 -130.56605735 40.17350832 -120.9375 34.4375 C-120.0928418 33.93283203 -119.24818359 33.42816406 -118.37792969 32.90820312 C-95.46387253 19.39456182 -70.82491976 10.35840482 -44.9375 4.4375 C-44.01243652 4.21449219 -43.08737305 3.99148437 -42.13427734 3.76171875 C-28.16382119 0.48696146 -14.28192391 0.05364148 0 0 Z " fill="#E1A130" transform="translate(440.9375,48.5625)"/>
<path d="M0 0 C0.33 0 0.66 0 1 0 C0.69285627 4.83751369 0.37776212 8.59735959 -1.9375 12.875 C-4.62669066 18.33076811 -4.8252338 24.10339652 -5.22827148 30.08544922 C-5.62824665 35.34364625 -6.65684919 39.26289837 -9 44 C-9.66 44 -10.32 44 -11 44 C-11.24878906 44.5671875 -11.49757813 45.134375 -11.75390625 45.71875 C-13.19546302 48.35783826 -14.8990283 50.28827664 -16.9375 52.5 C-17.73671875 53.37140625 -18.5359375 54.2428125 -19.359375 55.140625 C-20.23078125 56.08421875 -21.1021875 57.0278125 -22 58 C-22.94356211 59.03568114 -23.88625321 60.07215641 -24.828125 61.109375 C-32.75308734 69.82075304 -32.75308734 69.82075304 -36.5 73.4375 C-39.02158706 75.81502924 -39.02158706 75.81502924 -40.39575195 78.3918457 C-42.07497205 81.12188805 -43.86926073 83.06738875 -46.16796875 85.29296875 C-46.97943359 86.08896484 -47.79089844 86.88496094 -48.62695312 87.70507812 C-50.31415534 89.34080201 -52.00164831 90.97622604 -53.68945312 92.61132812 C-58.57819338 97.40760994 -63.01824507 102.30681121 -67.17382812 107.75463867 C-70.0128608 111.24535839 -73.2508414 114.48947695 -77 117 C-77.99 117 -78.98 117 -80 117 C-80.26167969 117.60070312 -80.52335937 118.20140625 -80.79296875 118.8203125 C-82.07422799 121.13404277 -83.24807082 122.2545833 -85.3125 123.875 C-90.93146587 128.53605485 -94.37248541 133.16846206 -97 140 C-97.495 140.99 -97.495 140.99 -98 142 C-98.02058366 144.98463114 -97.99405437 147.95432818 -97.9375 150.9375 C-97.85533968 158.81970903 -98.12510885 166.40880674 -100.65625 173.95703125 C-101.12150472 176.72212462 -100.43340394 178.60245201 -99.5625 181.25 C-99.27503906 182.14203125 -98.98757812 183.0340625 -98.69140625 183.953125 C-98.46324219 184.62859375 -98.23507813 185.3040625 -98 186 C-97.34 186 -96.68 186 -96 186 C-96 186.66 -96 187.32 -96 188 C-94.4221875 188.1546875 -94.4221875 188.1546875 -92.8125 188.3125 C-89.80032358 189.11737305 -89.11297903 189.80916495 -87.4921875 192.546875 C-86.63203019 194.53502304 -85.81425015 196.54212163 -85.04296875 198.56640625 C-84.24788645 201.14519937 -84.24788645 201.14519937 -82 202 C-82 202.99 -82 203.98 -82 205 C-81.071875 205.433125 -81.071875 205.433125 -80.125 205.875 C-78 207 -78 207 -76 209 C-74.01643517 209.71408334 -72.01684563 210.38617742 -70 211 C-70 211.66 -70 212.32 -70 213 C-57.15551758 215.95256284 -46.28198249 216.03383246 -33.1875 213.9375 C-24.53075949 212.575059 -18.1914331 211.92543813 -10.2421875 216.234375 C-6.35464444 219.29564584 -4.49593869 223.35471669 -3 228 C-3 228.99 -3 229.98 -3 231 C-2.34 231 -1.68 231 -1 231 C1.84478885 238.68438599 2.47498832 245.65750044 2.375 253.8125 C2.36629883 255.52638916 2.36629883 255.52638916 2.35742188 257.27490234 C2.23543514 265.19613339 1.56640871 272.4535363 -1 280 C-1.66 280 -2.32 280 -3 280 C-3 282.31 -3 284.62 -3 287 C-1.02 285.35 0.96 283.7 3 282 C2.25197957 286.86213282 -0.49002724 290.66767109 -4.125 293.875 C-6 295 -6 295 -8 295 C-7.5040912 289.71204617 -6.76839661 284.71961714 -5.48852539 279.57055664 C-1.83406046 264.59486054 -0.57550035 247.69714863 -6 233 C-6.30164063 232.16210938 -6.60328125 231.32421875 -6.9140625 230.4609375 C-9.04301778 225.14720359 -11.6813221 220.65933895 -17 218 C-24.66333508 217.56354515 -32.04131363 217.89456495 -39.625 219.0625 C-54.77712163 221.25868864 -67.95145047 218.38280076 -80.65625 209.78515625 C-85.00032512 206.47641904 -87.55427685 203.1046638 -89.6875 198.0625 C-91.85832382 193.35306815 -95.48563155 191.40844103 -99.71484375 188.63671875 C-102.83376759 186.40282287 -103.98319809 184.70406409 -105 181 C-105.60878031 175.8522253 -105.30344557 171.4857152 -103.5 166.625 C-101.67918714 161.36301787 -101.96110921 156.4835752 -102.125 151 C-102.28535818 143.12662907 -101.89746769 137.47692942 -97 131 C-96.31035156 130.07960938 -95.62070313 129.15921875 -94.91015625 128.2109375 C-90.71875559 122.89466521 -86.2827195 117.2876366 -81 113 C-80.34 113 -79.68 113 -79 113 C-79 112.34 -79 111.68 -79 111 C-77.49609375 109.53491211 -77.49609375 109.53491211 -75.4375 107.83984375 C-71.3090885 104.3261672 -67.6550243 100.55793603 -64 96.5625 C-55.83978988 87.75116118 -47.35051294 79.28825943 -38.81054688 70.84790039 C-38.30043564 70.34198364 -37.7903244 69.83606689 -37.26475525 69.31481934 C-35.86612905 67.92794848 -34.46452672 66.54408085 -33.06274414 65.16040039 C-30.96527815 63.17573272 -30.96527815 63.17573272 -30 61 C-29.34 61 -28.68 61 -28 61 C-27.60554688 60.11054688 -27.60554688 60.11054688 -27.203125 59.203125 C-25.94597491 56.90107093 -24.66412082 55.52616617 -22.75 53.75 C-15.93370659 47.11869994 -11.40286734 40.80546005 -10 31.25390625 C-9.835 30.16916016 -9.67 29.08441406 -9.5 27.96679688 C-9.335 26.84337891 -9.17 25.71996094 -9 24.5625 C-8.67154925 22.33391035 -8.33836157 20.1060127 -8 17.87890625 C-7.855625 16.8947876 -7.71125 15.91066895 -7.5625 14.89672852 C-6.96379213 11.81353888 -6.0526959 8.95604684 -5 6 C-4.01 6 -3.02 6 -2 6 C-1.855625 5.38125 -1.71125 4.7625 -1.5625 4.125 C-1 2 -1 2 0 0 Z " fill="#DEA129" transform="translate(130,222)"/>
<path d="M0 0 C3.93195918 3.09676976 4.42636312 7.25793516 5 12 C6.32742992 33.42197257 0.38841143 56.25536551 -13.4921875 73.0078125 C-15.9410475 75.73280508 -18.43237859 78.38697049 -21 81 C-21.845625 81.87140625 -22.69125 82.7428125 -23.5625 83.640625 C-29.63117323 89.51478948 -37.09333639 93.1239154 -44.53149414 96.95043945 C-49.10586664 99.36519206 -52.88574458 102.0945112 -56.58203125 105.75 C-58 107 -58 107 -60 107 C-58.43638038 103.16202456 -55.97489917 100.8332373 -53 98 C-52.34 97.2575 -51.68 96.515 -51 95.75 C-48.66947084 93.71078699 -47.04001379 93.33777931 -44 93 C-44 92.34 -44 91.68 -44 91 C-40.535 90.505 -40.535 90.505 -37 90 C-36.505 88.515 -36.505 88.515 -36 87 C-34.824375 86.484375 -33.64875 85.96875 -32.4375 85.4375 C-27.56106358 83.18751048 -24.99813026 79.69168069 -21.859375 75.4375 C-20.04837147 73.06341134 -18.22743496 70.98812377 -16 69 C-15.34 69 -14.68 69 -14 69 C-13.87625 68.195625 -13.7525 67.39125 -13.625 66.5625 C-13.41875 65.716875 -13.2125 64.87125 -13 64 C-12.34 63.67 -11.68 63.34 -11 63 C-9.4586753 60.4415258 -8.25681707 57.70773715 -7 55 C-6.46375 53.845 -5.9275 52.69 -5.375 51.5 C-4.35248741 48.89724068 -3.5876579 46.56635133 -2.9375 43.875 C-2 40 -2 40 -0.98046875 37.609375 C2.7678995 27.633638 1.5686284 14.39216318 0 4 C-6.24271611 4.24243558 -10.32347545 4.46961684 -15 9 C-15.66 9 -16.32 9 -17 9 C-17 9.66 -17 10.32 -17 11 C-17.66 11 -18.32 11 -19 11 C-19.21914063 11.58265625 -19.43828125 12.1653125 -19.6640625 12.765625 C-21.42720312 15.71450346 -23.47578981 16.93119253 -26.375 18.75 C-27.80972656 19.67039063 -27.80972656 19.67039063 -29.2734375 20.609375 C-32 22 -32 22 -36 22 C-36 22.66 -36 23.32 -36 24 C-38.31 24.66 -40.62 25.32 -43 26 C-43 26.66 -43 27.32 -43 28 C-44.485 28.495 -44.485 28.495 -46 29 C-46.33 29.66 -46.66 30.32 -47 31 C-48.6610399 31.68056496 -50.32878869 32.3448092 -52 33 C-56.66770152 35.82979405 -61.31096622 38.73505131 -64.5625 43.1875 C-68.44097265 47.66266075 -73.49109517 49.16369839 -79 51 C-79 51.66 -79 52.32 -79 53 C-80.62102968 54.71108689 -82.29503463 56.37253306 -84 58 C-84.680625 58.721875 -85.36125 59.44375 -86.0625 60.1875 C-88.91725886 62.85808087 -90.81009947 63.92891064 -94.74609375 64.1640625 C-98.21996517 63.98890932 -100.90854447 63.26369938 -104.1875 62.125 C-105.72470703 61.60292969 -105.72470703 61.60292969 -107.29296875 61.0703125 C-110 60 -110 60 -113 58 C-114.58360774 52.34624253 -113.52547403 48.8273164 -110.75 43.875 C-110.43675781 43.28074219 -110.12351562 42.68648437 -109.80078125 42.07421875 C-108.89338496 40.36861494 -107.94735192 38.68373892 -107 37 C-106.46890625 36.03320312 -105.9378125 35.06640625 -105.390625 34.0703125 C-104.70226562 33.04550781 -104.70226562 33.04550781 -104 32 C-103.34 32 -102.68 32 -102 32 C-101.79375 31.278125 -101.5875 30.55625 -101.375 29.8125 C-99.91249801 26.82101866 -98.30571348 25.51792359 -95.7109375 23.51171875 C-92.28551553 20.48514728 -89.7341673 16.64129758 -87 13 C-85.38874263 10.92232602 -83.75850369 8.95947555 -82 7 C-81.34 7 -80.68 7 -80 7 C-81.41104107 10.17484241 -83.11479584 12.36271529 -85.5 14.875 C-94.00041967 24.2685797 -110 42.02885749 -110 55 C-107.92227529 55.86772029 -105.83756823 56.71873619 -103.75 57.5625 C-102.00976562 58.27599609 -102.00976562 58.27599609 -100.234375 59.00390625 C-96.91900297 60.02494474 -96.11426406 60.11866095 -93 59 C-91.30145637 57.89836143 -91.30145637 57.89836143 -89.70703125 56.48046875 C-89.08562256 55.95880127 -88.46421387 55.43713379 -87.82397461 54.8996582 C-87.16018799 54.334646 -86.49640137 53.76963379 -85.8125 53.1875 C-77.52807392 46.29985007 -68.8946982 40.07017424 -60 34 C-59.36739258 33.5659082 -58.73478516 33.13181641 -58.08300781 32.68457031 C-50.12326815 27.2371104 -41.99114474 22.1553904 -33.72021484 17.1953125 C-27.84623805 13.62657061 -22.30108585 9.72144588 -16.85742188 5.52758789 C-11.25331298 1.25214897 -7.13432901 -0.66058602 0 0 Z " fill="#E2A32D" transform="translate(409,134)"/>
<path d="M0 0 C0.33 0 0.66 0 1 0 C0.69285627 4.83751369 0.37776212 8.59735959 -1.9375 12.875 C-4.62669066 18.33076811 -4.8252338 24.10339652 -5.22827148 30.08544922 C-5.62824665 35.34364625 -6.65684919 39.26289837 -9 44 C-9.66 44 -10.32 44 -11 44 C-11.24878906 44.5671875 -11.49757813 45.134375 -11.75390625 45.71875 C-13.19546302 48.35783826 -14.8990283 50.28827664 -16.9375 52.5 C-17.73671875 53.37140625 -18.5359375 54.2428125 -19.359375 55.140625 C-20.23078125 56.08421875 -21.1021875 57.0278125 -22 58 C-22.94356211 59.03568114 -23.88625321 60.07215641 -24.828125 61.109375 C-32.75308734 69.82075304 -32.75308734 69.82075304 -36.5 73.4375 C-39.02158706 75.81502924 -39.02158706 75.81502924 -40.39575195 78.3918457 C-42.07497205 81.12188805 -43.86926073 83.06738875 -46.16796875 85.29296875 C-46.97943359 86.08896484 -47.79089844 86.88496094 -48.62695312 87.70507812 C-50.31415534 89.34080201 -52.00164831 90.97622604 -53.68945312 92.61132812 C-58.57819338 97.40760994 -63.01824507 102.30681121 -67.17382812 107.75463867 C-70.0128608 111.24535839 -73.2508414 114.48947695 -77 117 C-77.99 117 -78.98 117 -80 117 C-80.2475 117.61875 -80.495 118.2375 -80.75 118.875 C-82.22047178 121.37480203 -83.41403076 121.83316022 -86 123 C-81.71972945 116.90805618 -76.92786096 111.65072185 -71.625 106.4375 C-70.90828125 105.72142578 -70.1915625 105.00535156 -69.453125 104.26757812 C-65.32043481 100.16845672 -61.08470087 96.23897998 -56.67260742 92.44213867 C-53.89037217 90.0432679 -51.50697403 87.89303833 -49.68457031 84.68286133 C-47.8487151 81.75906235 -45.824096 79.61329812 -43.359375 77.19921875 C-42.45316406 76.30396484 -41.54695313 75.40871094 -40.61328125 74.48632812 C-39.65922908 73.55300203 -38.70479984 72.62006122 -37.75 71.6875 C-21.9051375 57.3499214 -21.9051375 57.3499214 -12 39 C-11.52820313 37.22496094 -11.52820313 37.22496094 -11.046875 35.4140625 C-9.68454737 29.96724254 -8.93897631 24.44301028 -8.14453125 18.890625 C-7.47326831 14.40110298 -6.60451302 10.27409072 -5 6 C-4.01 6 -3.02 6 -2 6 C-1.855625 5.38125 -1.71125 4.7625 -1.5625 4.125 C-1 2 -1 2 0 0 Z " fill="#E2A433" transform="translate(130,222)"/>
<path d="M0 0 C6.83483004 4.69056964 12.28207222 10.23237403 17.875 16.3125 C18.66934448 17.17452026 18.66934448 17.17452026 19.47973633 18.05395508 C22.80933591 21.6772079 26.08629548 25.33936273 29.30859375 29.05859375 C33.78683989 34.19875156 38.36147133 39.25674537 43.01953125 44.234375 C43.52516602 44.77739258 44.03080078 45.32041016 44.55175781 45.87988281 C45.54559542 46.94567246 46.54354424 48.00764576 47.54589844 49.06542969 C51 52.77667267 51 52.77667267 51 55 C51.66 55 52.32 55 53 55 C54.26953125 56.29296875 54.26953125 56.29296875 55.8125 58.1875 C59.78474212 62.89191386 64.12688618 67.16141578 68.5559082 71.43041992 C69.10077881 71.9638501 69.64564941 72.49728027 70.20703125 73.046875 C70.6966333 73.51963867 71.18623535 73.99240234 71.69067383 74.47949219 C73 76 73 76 73.92993164 77.92773438 C75.24197502 80.46860233 76.87832386 82.10402051 78.9140625 84.109375 C79.67460937 84.86347656 80.43515625 85.61757813 81.21875 86.39453125 C82.0128125 87.17183594 82.806875 87.94914062 83.625 88.75 C84.42679687 89.54277344 85.22859375 90.33554687 86.0546875 91.15234375 C88.03202846 93.10614493 90.01388909 95.05512103 92 97 C87.0943705 97 84.38221186 93.30926219 81 90 C80.06283219 88.91317973 79.1431024 87.81081203 78.25 86.6875 C76.28040942 83.96193847 76.28040942 83.96193847 73.9375 83 C70.95150685 81.45884225 69.8025136 78.78570284 68 76 C67.175 75.175 66.35 74.35 65.5 73.5 C63 71 63 71 61.0625 68.0625 C57.25548239 62.40965566 53.33844458 58.71647625 47 56 C47 55.01 47 54.02 47 53 C46.34 53 45.68 53 45 53 C45 52.34 45 51.68 45 51 C44.01 50.67 43.02 50.34 42 50 C42 49.01 42 48.02 42 47 C41.01 46.67 40.02 46.34 39 46 C37.5703125 44.2578125 37.5703125 44.2578125 36.125 42.125 C33.73040232 38.77495187 31.64726525 36.97994399 28 35 C27.67 34.01 27.34 33.02 27 32 C26.01 31.67 25.02 31.34 24 31 C24 30.01 24 29.02 24 28 C23.34 28 22.68 28 22 28 C22 27.01 22 26.02 22 25 C21.34 25 20.68 25 20 25 C18.2734375 23.35546875 18.2734375 23.35546875 16.375 21.1875 C15.74335938 20.47980469 15.11171875 19.77210938 14.4609375 19.04296875 C13 17 13 17 13 14 C11.68 13.67 10.36 13.34 9 13 C9 12.34 9 11.68 9 11 C8.34 11 7.68 11 7 11 C6.67 10.01 6.34 9.02 6 8 C5.360625 7.731875 4.72125 7.46375 4.0625 7.1875 C2 6 2 6 0.75 2.875 C0.5025 1.92625 0.255 0.9775 0 0 Z " fill="#E4A129" transform="translate(359,263)"/>
<path d="M0 0 C2.97 0.495 2.97 0.495 6 1 C6.33853295 9.16240568 5.29901921 16.95072024 4 25 C3.34 25 2.68 25 2 25 C2.04125 26.134375 2.0825 27.26875 2.125 28.4375 C2.13524342 34.19430049 0.81242426 39.56272723 -1 45 C-1.66 45 -2.32 45 -3 45 C-3.66 47.97 -4.32 50.94 -5 54 C-3.02 53.505 -3.02 53.505 -1 53 C-2.35091093 57.42116304 -4.13117725 59.48076658 -8 62 C-10.8125 62.75 -10.8125 62.75 -13 63 C-12.35344745 58.49999424 -10.59222166 54.70258135 -8.6875 50.625 C-5.19997418 42.90433939 -2.85655352 35.28452022 -1 27 C-0.77441406 25.9996875 -0.54882812 24.999375 -0.31640625 23.96875 C0.91352617 17.92935772 1.24029241 12.15415571 1 6 C0.34 6.66 -0.32 7.32 -1 8 C-1.93065133 5.39417629 -2.14917407 4.35801776 -1.0625 1.75 C-0.711875 1.1725 -0.36125 0.595 0 0 Z " fill="#E0A02A" transform="translate(135,496)"/>
<path d="M0 0 C1.09828125 -0.01224609 2.1965625 -0.02449219 3.328125 -0.03710938 C4.3903125 -0.03904297 5.4525 -0.04097656 6.546875 -0.04296875 C8.00625488 -0.04913208 8.00625488 -0.04913208 9.49511719 -0.05541992 C12.42082294 0.20256282 14.5936027 0.96610183 17.25 2.1875 C17.25 3.1775 17.25 4.1675 17.25 5.1875 C15.27 5.5175 13.29 5.8475 11.25 6.1875 C11.91 5.1975 12.57 4.2075 13.25 3.1875 C1.53914513 0.1653439 -11.13331585 3.43369064 -22.75 5.625 C-23.94625 5.85058594 -25.1425 6.07617188 -26.375 6.30859375 C-29.76036742 7.06501691 -29.76036742 7.06501691 -32.6875 8.66015625 C-35.65839098 10.14181234 -38.41787167 10.82575797 -41.63525391 11.56640625 C-45.50989705 12.70437579 -48.92811834 14.72425342 -52.4375 16.6875 C-53.89848048 17.49187448 -55.36068976 18.29402181 -56.82421875 19.09375 C-57.50532715 19.46886719 -58.18643555 19.84398438 -58.88818359 20.23046875 C-60.75 21.1875 -60.75 21.1875 -63.51953125 22.15625 C-65.96472293 23.08422738 -65.96472293 23.08422738 -67.68359375 25.6171875 C-70.12541091 28.65445724 -72.28480153 29.71257727 -75.8125 31.3125 C-80.77463837 33.5678259 -80.77463837 33.5678259 -84.75 37.1875 C-85.41 36.8575 -86.07 36.5275 -86.75 36.1875 C-81.88151544 31.8797833 -76.9098211 28.03803649 -71.5 24.4375 C-70.73365234 23.92525879 -69.96730469 23.41301758 -69.17773438 22.88525391 C-61.25017522 17.69061646 -52.92255782 13.34279339 -44.43554688 9.14208984 C-42.56809787 8.1834816 -42.56809787 8.1834816 -40.75 6.1875 C-38.81824596 5.39058106 -36.85427446 4.67024331 -34.875 4 C-33.82570313 3.63519531 -32.77640625 3.27039062 -31.6953125 2.89453125 C-28.76154439 2.19027127 -27.52386585 2.21104947 -24.75 3.1875 C-22.30042645 3.1875 -20.09130889 2.72384434 -17.6875 2.25 C-16.78902344 2.07597656 -15.89054687 1.90195312 -14.96484375 1.72265625 C-9.87050553 0.49174913 -5.6720581 0.00328244 0 0 Z " fill="#E1A63A" transform="translate(343.75,29.8125)"/>
<path d="M0 0 C0.66 0 1.32 0 2 0 C1.39230243 5.6739763 0.40249041 11.05013308 -1.0625 16.5625 C-1.27729004 17.37114502 -1.49208008 18.17979004 -1.71337891 19.01293945 C-6.13453406 35.15796863 -11.95212225 50.82503822 -19 66 C-19.66 66 -20.32 66 -21 66 C-21.33 66.99 -21.66 67.98 -22 69 C-22.33 69 -22.66 69 -23 69 C-23 67.35 -23 65.7 -23 64 C-22.34 64 -21.68 64 -21 64 C-20.79503906 62.91912109 -20.79503906 62.91912109 -20.5859375 61.81640625 C-20.03097346 59.14887909 -19.37764446 56.55556972 -18.625 53.9375 C-18.39039063 53.10089844 -18.15578125 52.26429688 -17.9140625 51.40234375 C-16.94440539 48.85388597 -15.71276366 47.10555746 -14 45 C-12.04284372 41.77644848 -11.33422442 38.45659768 -10.5625 34.8046875 C-10 33 -10 33 -8 31 C-7.64783794 28.86934946 -7.64783794 28.86934946 -7.5625 26.4375 C-7.21080484 22.06015132 -6.26435996 18.4232339 -4.765625 14.31640625 C-3.4388109 10.30211665 -2.73757379 6.15644525 -2 2 C-1.34 2 -0.68 2 0 2 C0 1.34 0 0.68 0 0 Z " fill="#E8A426" transform="translate(525,510)"/>
<path d="M0 0 C0.99 0.33 1.98 0.66 3 1 C2.50226074 1.53512207 2.00452148 2.07024414 1.49169922 2.62158203 C-3.48482395 8.07890593 -7.8144097 13.71125009 -11.875 19.875 C-12.4736084 20.77976074 -13.0722168 21.68452148 -13.68896484 22.61669922 C-21.53657843 34.66816675 -28.67442225 47.22762054 -33 61 C-32.57702637 60.5467334 -32.15405273 60.0934668 -31.71826172 59.62646484 C-29.77159575 57.54162438 -27.82330944 55.45830466 -25.875 53.375 C-25.20984375 52.66214844 -24.5446875 51.94929688 -23.859375 51.21484375 C-19.97739207 47.06645023 -16.04256015 42.99218557 -12 39 C-11.34 39.33 -10.68 39.66 -10 40 C-10.78503906 40.7734375 -11.57007813 41.546875 -12.37890625 42.34375 C-22.36188769 52.1351371 -22.36188769 52.1351371 -31.125 63 C-33 65 -33 65 -35.6171875 65.125 C-36.40351563 65.08375 -37.18984375 65.0425 -38 65 C-29.83125431 44.8122718 -20.4540705 26.18628397 -7 9 C-6.25878906 8.03578125 -5.51757812 7.0715625 -4.75390625 6.078125 C-3.18209025 4.04140568 -1.59979294 2.0147563 0 0 Z " fill="#E19B1B" transform="translate(285,80)"/>
<path d="M0 0 C0.33 0 0.66 0 1 0 C3.12033143 9.80653286 2.49046144 20.45449481 -0.65625 29.98828125 C-1.12581431 32.73629966 -0.42807919 34.61863926 0.4375 37.25 C0.72496094 38.14203125 1.01242188 39.0340625 1.30859375 39.953125 C1.53675781 40.62859375 1.76492187 41.3040625 2 42 C2.66 42 3.32 42 4 42 C4 42.66 4 43.32 4 44 C5.051875 44.103125 6.10375 44.20625 7.1875 44.3125 C10.19967642 45.11737305 10.88702097 45.80916495 12.5078125 48.546875 C13.36796981 50.53502304 14.18574985 52.54212163 14.95703125 54.56640625 C15.75211355 57.14519937 15.75211355 57.14519937 18 58 C18 58.99 18 59.98 18 61 C18.61875 61.268125 19.2375 61.53625 19.875 61.8125 C22 63 22 63 24 66 C18.37158444 64.67566693 15.97370133 60.6071429 13 56 C12.4225 54.824375 11.845 53.64875 11.25 52.4375 C8.62338032 47.56590623 3.69413788 44.69054244 -1 42 C-1.66 42 -2.32 42 -3 42 C-5.55903682 37.20180597 -5.38612745 32.29802777 -5 27 C-4.505 25.515 -4.505 25.515 -4 24 C-3.34 24 -2.68 24 -2 24 C-0.79483714 19.10845663 -0.66538566 14.19724878 -0.4375 9.1875 C-0.39431641 8.30384766 -0.35113281 7.42019531 -0.30664062 6.50976562 C-0.20108464 4.34000377 -0.10008929 2.1700209 0 0 Z " fill="#E2A437" transform="translate(30,366)"/>
<path d="M0 0 C0.66 0.33 1.32 0.66 2 1 C-1.49182898 4.59452983 -5.00700747 7.96185351 -9 11 C-9.99 11 -10.98 11 -12 11 C-12.20625 11.763125 -12.4125 12.52625 -12.625 13.3125 C-14.46857382 16.91584883 -16.32747575 17.367767 -20 19 C-27.1810887 22.64345764 -31.80681651 27.94959237 -37 34 C-41.12306122 38.53001271 -45.54716482 41.2908747 -51 44 C-50.125 42.97916667 -49.25 41.95833333 -48.375 40.9375 C-47.82972656 40.30070312 -47.28445313 39.66390625 -46.72265625 39.0078125 C-45.60805795 37.70871154 -44.49102771 36.4116915 -43.37109375 35.1171875 C-42.85675781 34.52164063 -42.34242188 33.92609375 -41.8125 33.3125 C-41.31363281 32.73628906 -40.81476563 32.16007812 -40.30078125 31.56640625 C-38.9003051 29.93562655 -38.9003051 29.93562655 -37.5 27.75 C-36 26 -36 26 -33.22265625 24.66796875 C-29.91867691 22.95790914 -27.63938659 21.10167392 -24.9375 18.5625 C-16.28101803 10.48038176 -16.28101803 10.48038176 -12.5 9.0625 C-9.24360239 7.67853102 -7.45740247 5.51883753 -5 3 C-2.3125 1.125 -2.3125 1.125 0 0 Z " fill="#DEA33E" transform="translate(313,89)"/>
<path d="M0 0 C0.66 0 1.32 0 2 0 C0.58895893 3.17484241 -1.11479584 5.36271529 -3.5 7.875 C-12.00041967 17.2685797 -28 35.02885749 -28 48 C-24.04 49.65 -20.08 51.3 -16 53 C-16.33 53.66 -16.66 54.32 -17 55 C-21.29 53.35 -25.58 51.7 -30 50 C-30 49.34 -30 48.68 -30 48 C-30.66 48 -31.32 48 -32 48 C-31.85334117 41.54701132 -29.02743228 37.19492639 -25.69140625 31.76953125 C-24.33387478 29.54669104 -23.11592226 27.34960517 -22 25 C-21.34 25 -20.68 25 -20 25 C-19.79375 24.278125 -19.5875 23.55625 -19.375 22.8125 C-17.91249801 19.82101866 -16.30571348 18.51792359 -13.7109375 16.51171875 C-10.28551553 13.48514728 -7.7341673 9.64129758 -5 6 C-3.38874263 3.92232602 -1.75850369 1.95947555 0 0 Z " fill="#E3A121" transform="translate(327,141)"/>
<path d="M0 0 C3 1 3 1 4.6875 3.9375 C6 7 6 7 6 9 C6.66 9 7.32 9 8 9 C8.24492188 9.52207031 8.48984375 10.04414063 8.7421875 10.58203125 C11.93683153 16.87217518 16.13285157 21.67512039 20.98828125 26.71484375 C23 29 23 29 23 31 C23.66 31 24.32 31 25 31 C25 31.66 25 32.32 25 33 C25.86625 33.0928125 25.86625 33.0928125 26.75 33.1875 C29.91964348 34.33209348 30.99420228 36.32560305 33 39 C34.64783606 40.68528688 36.31002677 42.35697047 38 44 C29.12697083 42.30090931 22.93844177 36.48649893 17.19140625 29.7734375 C16 28 16 28 15.04296875 25.55078125 C13.93430378 22.83932723 12.61884222 21.05595249 10.75 18.8125 C1.40033056 7.11563322 1.40033056 7.11563322 0 0 Z " fill="#DD9E28" transform="translate(91,175)"/>
<path d="M0 0 C0.66 0.66 1.32 1.32 2 2 C1.030625 2.3403125 0.06125 2.680625 -0.9375 3.03125 C-23.73698058 11.20161431 -41.99875035 22.55134904 -59 40 C-59.66 39.67 -60.32 39.34 -61 39 C-59.25 35.125 -59.25 35.125 -57 34 C-57 33.34 -57 32.68 -57 32 C-56.278125 31.773125 -55.55625 31.54625 -54.8125 31.3125 C-51.40835541 29.72389919 -49.63033337 27.69011368 -47 25 C-44.62602154 23.14245193 -42.22093121 21.33709621 -39.79296875 19.55078125 C-39.20128906 19.03902344 -38.60960937 18.52726562 -38 18 C-38 17.34 -38 16.68 -38 16 C-37.01 16 -36.02 16 -35 16 C-35 15.34 -35 14.68 -35 14 C-31.61229987 11.4592249 -28.37688083 10.57570488 -24.29296875 9.65625 C-20.64587009 8.61244664 -17.32196539 6.92446056 -13.8984375 5.30859375 C-9.36597373 3.26226577 -4.69658695 1.62609103 0 0 Z " fill="#DD9C23" transform="translate(349,38)"/>
<path d="M0 0 C3.60202267 5.40303401 3.19396096 11.93118123 3.1875 18.25 C3.18737915 19.36979248 3.18737915 19.36979248 3.18725586 20.51220703 C3.1348256 25.62388174 2.59577612 30.41285279 1.51171875 35.41796875 C0.6232585 39.90096283 0.33463106 44.44725641 0 49 C1.98 47.35 3.96 45.7 6 44 C5.25197957 48.86213282 2.50997276 52.66767109 -1.125 55.875 C-3 57 -3 57 -5 57 C-4.61546121 52.58582856 -4.15613285 48.27698342 -3.02734375 43.984375 C0.78295619 29.38802181 0.40304574 14.98865113 0 0 Z " fill="#D99A21" transform="translate(127,460)"/>
<path d="M0 0 C0.66 0 1.32 0 2 0 C1.49213933 4.69125531 -0.41697085 7.27537142 -3.3125 10.9375 C-3.96822998 11.77087891 -3.96822998 11.77087891 -4.63720703 12.62109375 C-9.48528555 18.72418944 -14.58834493 24.61418084 -19.71386719 30.484375 C-20.93184075 31.9196787 -22.08173656 33.41195087 -23.2265625 34.90625 C-23.81179688 35.5971875 -24.39703125 36.288125 -25 37 C-25.66 37 -26.32 37 -27 37 C-27.28875 37.639375 -27.5775 38.27875 -27.875 38.9375 C-29 41 -29 41 -31 42 C-31 40.68 -31 39.36 -31 38 C-30.21625 37.7525 -29.4325 37.505 -28.625 37.25 C-25.53345968 35.77783794 -25.30679366 35.04918521 -24 32 C-23.34 31.21625 -22.68 30.4325 -22 29.625 C-19.84531794 27.09575009 -19.84531794 27.09575009 -19 23.9375 C-17.67347404 20.04082999 -15.67637162 17.83818581 -12 16 C-11.54625 15.236875 -11.0925 14.47375 -10.625 13.6875 C-8.9866077 10.9778512 -7.22950525 9.22950525 -5 7 C-3.67436494 5.15529097 -2.39927064 3.28679243 -1.1484375 1.390625 C-0.76945312 0.93171875 -0.39046875 0.4728125 0 0 Z " fill="#E7A42A" transform="translate(483,612)"/>
<path d="M0 0 C0.66 0.33 1.32 0.66 2 1 C2 2.98 2 4.96 2 7 C3.32 7 4.64 7 6 7 C6.28875 6.195625 6.5775 5.39125 6.875 4.5625 C8 2 8 2 10 1 C9.54885067 5.90739985 7.05746281 8.97845069 4.0625 12.6875 C3.60681641 13.26822266 3.15113281 13.84894531 2.68164062 14.44726562 C0.87343167 16.73731065 -0.93534613 18.93534613 -3 21 C-3.99 21 -4.98 21 -6 21 C-5.40380045 16.13103697 -4.43023178 11.67209049 -3 7 C-2.34 7 -1.68 7 -1 7 C-1.020625 6.030625 -1.04125 5.06125 -1.0625 4.0625 C-1 1 -1 1 0 0 Z " fill="#E5A429" transform="translate(153,525)"/>
<path d="M0 0 C4.32712851 7.34520973 4.33394597 17.65135068 4 26 C4.66 26 5.32 26 6 26 C5.5166022 37.10542835 4.67027792 48.00535504 3 59 C2.67 59 2.34 59 2 59 C2.01047363 58.37883301 2.02094727 57.75766602 2.03173828 57.11767578 C2.22737543 43.56423146 1.90868403 30.1882554 0.71142578 16.68212891 C0.21611538 11.09068364 -0.1078299 5.61389418 0 0 Z " fill="#E6A431" transform="translate(188,429)"/>
<path d="M0 0 C0.495 0.99 0.495 0.99 1 2 C-0.02770508 2.59687622 -0.02770508 2.59687622 -1.07617188 3.20581055 C-4.21823176 5.03169528 -7.35912242 6.85958229 -10.5 8.6875 C-11.57765625 9.31333984 -12.6553125 9.93917969 -13.765625 10.58398438 C-24.99558119 16.48645048 -24.99558119 16.48645048 -34 25 C-35.06154297 25.36544922 -35.06154297 25.36544922 -36.14453125 25.73828125 C-40.07556657 27.47525034 -42.83628278 30.13372628 -46 33 C-53.2371134 39.55670103 -53.2371134 39.55670103 -58 41 C-44.94475815 27.50958342 -30.18096352 17.32960182 -14 8 C-13.33242676 7.61473145 -12.66485352 7.22946289 -11.97705078 6.83251953 C-7.99393564 4.53857387 -4.00103692 2.26252781 0 0 Z " fill="#D69924" transform="translate(336,74)"/>
<path d="M0 0 C0.66 0.33 1.32 0.66 2 1 C-6.94568126 9.75608108 -16.59353106 17.05669989 -27 24 C-27.90878906 24.6290625 -28.81757813 25.258125 -29.75390625 25.90625 C-32 27 -32 27 -34.10546875 27.0234375 C-36.9362298 25.49424287 -37.82416697 23.43916815 -39.3125 20.625 C-40.11107422 19.15933594 -40.11107422 19.15933594 -40.92578125 17.6640625 C-42 15 -42 15 -41 12 C-39.99491199 13.78881736 -38.99607264 15.58114696 -38 17.375 C-37.1646875 18.87160156 -37.1646875 18.87160156 -36.3125 20.3984375 C-35 23 -35 23 -35 25 C-29.69321581 22.91957689 -25.24921523 20.38030048 -20.625 17.0625 C-19.99722656 16.63259766 -19.36945313 16.20269531 -18.72265625 15.75976562 C-15.39380953 13.39074836 -13.69572343 12.03915007 -13 8 C-11.68 8 -10.36 8 -9 8 C-8.67 7.01 -8.34 6.02 -8 5 C-7.401875 4.855625 -6.80375 4.71125 -6.1875 4.5625 C-3.2629977 3.81048512 -1.98969345 2.20287489 0 0 Z " fill="#DF9C20" transform="translate(447,656)"/>
<path d="M0 0 C2 2 2 2 2.08203125 5.16796875 C2.00704633 6.50872616 1.9160913 7.84864899 1.8125 9.1875 C1.75989014 9.90220459 1.70728027 10.61690918 1.65307617 11.35327148 C0.39108678 26.53224582 -3.12512014 41.40648797 -12 54 C-12.99 53.67 -13.98 53.34 -15 53 C-14.67 50.03 -14.34 47.06 -14 44 C-13.67 44 -13.34 44 -13 44 C-12.67 45.98 -12.34 47.96 -12 50 C-11.040062 47.93824636 -10.08211576 45.87556531 -9.125 43.8125 C-8.59132812 42.66394531 -8.05765625 41.51539063 -7.5078125 40.33203125 C-6.76144531 38.68267578 -6.76144531 38.68267578 -6 37 C-5.63777344 36.24332031 -5.27554688 35.48664063 -4.90234375 34.70703125 C-3.50685533 30.520566 -3.02011356 26.23903285 -2.4375 21.875 C-2.24353638 20.47181519 -2.24353638 20.47181519 -2.0456543 19.0402832 C-1.18574682 12.70843727 -0.4331095 6.37716408 0 0 Z " fill="#E19F15" transform="translate(193,462)"/>
<path d="M0 0 C0.66 0.33 1.32 0.66 2 1 C1.47567383 1.51908936 0.95134766 2.03817871 0.41113281 2.57299805 C-1.97857368 4.94183028 -4.3643132 7.3146198 -6.75 9.6875 C-7.9875 10.91243164 -7.9875 10.91243164 -9.25 12.16210938 C-10.04921875 12.95810547 -10.8484375 13.75410156 -11.671875 14.57421875 C-12.4050293 15.30213623 -13.13818359 16.03005371 -13.89355469 16.7800293 C-16.93279908 19.98307163 -19.52391228 23.00642564 -21.4375 27 C-23.17950385 30.34464739 -25.31381138 32.38268801 -28 35 C-28.33 35.66 -28.66 36.32 -29 37 C-30.72961733 40.45923467 -33.54297534 43.27148767 -37 45 C-35.42295047 40.21383805 -32.75453245 36.59739663 -29.75 32.625 C-28.9624231 31.57977173 -28.9624231 31.57977173 -28.15893555 30.51342773 C-19.72196694 19.52468181 -9.90123787 9.66549411 0 0 Z " fill="#DDA43E" transform="translate(255,67)"/>
<path d="M0 0 C0.66 0 1.32 0 2 0 C1.67 0.78375 1.34 1.5675 1 2.375 C-0.11866511 4.84332497 -0.11866511 4.84332497 0 7 C-1.32 7 -2.64 7 -4 7 C-4.2578125 7.57105469 -4.515625 8.14210938 -4.78125 8.73046875 C-6.11771929 11.21921445 -7.67967262 13.15272633 -9.5 15.3125 C-12.98762635 19.60839012 -16.17303851 24.03191274 -19.25 28.625 C-19.8677832 29.5382605 -19.8677832 29.5382605 -20.49804688 30.4699707 C-23.38145736 34.82254191 -25.73593569 39.2953159 -28 44 C-29.35752104 39.92743687 -28.16038891 38.46842341 -26.375 34.625 C-25.86710937 33.50351563 -25.35921875 32.38203125 -24.8359375 31.2265625 C-22.91716562 27.85442298 -20.81429821 25.64454689 -18 23 C-17.04667149 21.82037634 -16.12242381 20.61565463 -15.25 19.375 C-14.84265625 18.80523437 -14.4353125 18.23546875 -14.015625 17.6484375 C-12.82558543 15.85742162 -12.82558543 15.85742162 -12 13 C-10.71340837 11.62150897 -9.37086915 10.29470975 -8 9 C-5.58332771 6.64227093 -3.30397256 4.41655499 -1.3125 1.6875 C-0.6628125 0.8521875 -0.6628125 0.8521875 0 0 Z " fill="#E7A732" transform="translate(289,73)"/>
<path d="M0 0 C0.66 0.66 1.32 1.32 2 2 C1.67 2.99 1.34 3.98 1 5 C0.505 4.01 0.505 4.01 0 3 C-1.175625 2.9175 -2.35125 2.835 -3.5625 2.75 C-4.22378906 2.70359375 -4.88507813 2.6571875 -5.56640625 2.609375 C-11.89403433 3.62504564 -17.52499849 8.68902139 -22.5625 12.4375 C-23.19607422 12.90220703 -23.82964844 13.36691406 -24.48242188 13.84570312 C-27.48113135 16.0599922 -30.38437884 18.31213755 -33.19140625 20.765625 C-36.87070387 23.69268792 -39.45600407 24.13820767 -44 25 C-41.02006622 21.76403373 -37.98083055 19.64669754 -34.1875 17.4375 C-28.20519199 13.88788198 -22.63591284 9.90806183 -17.11401367 5.68139648 C-11.49184957 1.43372541 -7.26356706 -0.54819374 0 0 Z " fill="#D69A24" transform="translate(409,134)"/>
<path d="M0 0 C0 0.66 0 1.32 0 2 C-1.3984375 3.12231445 -1.3984375 3.12231445 -3.375 4.36328125 C-4.10605957 4.83217773 -4.83711914 5.30107422 -5.59033203 5.78417969 C-6.38552246 6.28852539 -7.18071289 6.79287109 -8 7.3125 C-17.20019074 13.27391391 -25.63262399 19.9321892 -34 27 C-34.66 26.67 -35.32 26.34 -36 26 C-33.08507735 21.96395326 -30.13784259 19.71203177 -26 17 C-22.85033068 14.63383051 -19.72895799 12.23377358 -16.609375 9.828125 C-14 8 -14 8 -12 8 C-11.67 6.68 -11.34 5.36 -11 4 C-10.34 4 -9.68 4 -9 4 C-9 3.34 -9 2.68 -9 2 C-3.375 0 -3.375 0 0 0 Z " fill="#E1A123" transform="translate(379,100)"/>
<path d="M0 0 C0 0.66 0 1.32 0 2 C-2.21814024 3.7288446 -4.43606469 5.34666947 -6.75 6.9375 C-8.01585609 7.82128368 -9.28148687 8.70539017 -10.546875 9.58984375 C-11.14693359 10.00476074 -11.74699219 10.41967773 -12.36523438 10.84716797 C-13.71417212 11.798435 -15.02673545 12.80106038 -16.328125 13.81640625 C-18 15 -18 15 -20 15 C-20.268125 15.556875 -20.53625 16.11375 -20.8125 16.6875 C-21.204375 17.450625 -21.59625 18.21375 -22 19 C-22.4125 19.86625 -22.825 20.7325 -23.25 21.625 C-25.4804804 24.65208055 -27.41422344 25.12347684 -31 26 C-30.6875 24.125 -30.6875 24.125 -30 22 C-29.01 21.34 -28.02 20.68 -27 20 C-26.34 19.01 -25.68 18.02 -25 17 C-15.6953125 8 -15.6953125 8 -11 8 C-11 7.34 -11 6.68 -11 6 C-9.1015625 4.4921875 -9.1015625 4.4921875 -6.625 2.875 C-5.81289063 2.33617188 -5.00078125 1.79734375 -4.1640625 1.2421875 C-2 0 -2 0 0 0 Z " fill="#E7A732" transform="translate(367,106)"/>
<path d="M0 0 C0.66 0 1.32 0 2 0 C6 4.47058824 6 4.47058824 6 7 C6.928125 7.0928125 6.928125 7.0928125 7.875 7.1875 C10 8 10 8 11.25 10.5625 C11.4975 11.366875 11.745 12.17125 12 13 C12.66 13 13.32 13 14 13 C14.66 15.97 15.32 18.94 16 22 C16.66 22 17.32 22 18 22 C19.0625 23.8125 19.0625 23.8125 20 26 C19.67 26.99 19.34 27.98 19 29 C18.31292969 27.95199219 17.62585938 26.90398438 16.91796875 25.82421875 C16.00799762 24.44519033 15.09783112 23.06629081 14.1875 21.6875 C13.50977539 20.65206055 13.50977539 20.65206055 12.81835938 19.59570312 C12.37685547 18.92861328 11.93535156 18.26152344 11.48046875 17.57421875 C11.07723389 16.96151123 10.67399902 16.34880371 10.25854492 15.7175293 C8.51756265 13.34162042 6.46746405 11.43283709 4.3125 9.4375 C3 8 3 8 3 6 C2.505 5.34 2.01 4.68 1.5 4 C0 2 0 2 0 0 Z " fill="#E2A63B" transform="translate(382,631)"/>
<path d="M0 0 C0.33 0 0.66 0 1 0 C1.85760994 10.81541424 -0.58681963 21.7604589 -4 32 C-4.66 32 -5.32 32 -6 32 C-5.69381357 21.92646658 -4.03714219 13.59230742 -1 4 C-0.653432 2.6700453 -0.31332892 1.33817558 0 0 Z " fill="#E49C19" transform="translate(175,480)"/>
<path d="M0 0 C7.09406894 0.58476056 14.01563899 1.63233995 21 3 C21 3.66 21 4.32 21 5 C22.98 5 24.96 5 27 5 C27 5.99 27 6.98 27 8 C23.24821191 7.38543671 19.49896365 6.75654585 15.75 6.125 C14.68652344 5.95097656 13.62304688 5.77695312 12.52734375 5.59765625 C10.99013672 5.33662109 10.99013672 5.33662109 9.421875 5.0703125 C8.47924805 4.91320801 7.53662109 4.75610352 6.56542969 4.59423828 C4.10504208 4.02433122 2.19312968 3.23194322 0 2 C0 1.34 0 0.68 0 0 Z " fill="#E2A539" transform="translate(507,395)"/>
<path d="M0 0 C0 0.99 0 1.98 0 3 C-3.75 4.125 -3.75 4.125 -6 3 C-8.59906324 3.81778306 -11.09116165 4.69973735 -13.625 5.6875 C-14.34977539 5.96279541 -15.07455078 6.23809082 -15.82128906 6.52172852 C-19.58321635 7.97327738 -23.19687962 9.51908519 -26.75 11.4375 C-30.19015409 13.09142024 -30.62922446 13.12114926 -34 12 C-28.13133619 7.2672066 -21.37351743 5.1343873 -14 4 C-13.67 3.34 -13.34 2.68 -13 2 C-8.54569773 0.42789332 -4.71334503 -0.22991927 0 0 Z " fill="#E6A636" transform="translate(355,36)"/>
<path d="M0 0 C-6.29304541 2.14328358 -12.62267685 4.12275039 -19 6 C-19.30470113 15.44573505 -18.14169926 24.6421436 -17 34 C-17.66 34 -18.32 34 -19 34 C-19.50790159 30.48026001 -20.00488523 26.95905958 -20.5 23.4375 C-20.64308594 22.44685547 -20.78617188 21.45621094 -20.93359375 20.43554688 C-21.65920623 15.23532412 -22.17673411 10.25047582 -22 5 C-17.6199408 3.29664364 -13.22403797 1.69045436 -8.75 0.25 C-7.94046875 -0.01296875 -7.1309375 -0.2759375 -6.296875 -0.546875 C-3.8182948 -1.03584661 -2.36880172 -0.80408866 0 0 Z " fill="#E29D1E" transform="translate(211,421)"/>
<path d="M0 0 C0.66 0.33 1.32 0.66 2 1 C-2.15636754 29.35792096 -2.15636754 29.35792096 -5 40 C-5.66 40 -6.32 40 -7 40 C-7.17693788 35.14336021 -6.70189665 31.35558081 -5.1875 26.75 C-2.52584712 17.97885919 -1.27506367 9.06067972 0 0 Z " fill="#E69A1D" transform="translate(533,468)"/>
<path d="M0 0 C0 0.33 0 0.66 0 1 C-0.66386719 1.09796875 -1.32773437 1.1959375 -2.01171875 1.296875 C-7.45058506 2.21790929 -10.86795107 3.12620413 -15 7 C-15.66 7 -16.32 7 -17 7 C-17 7.66 -17 8.32 -17 9 C-17.66 9 -18.32 9 -19 9 C-19.32484375 9.87205078 -19.32484375 9.87205078 -19.65625 10.76171875 C-21.44601973 13.74293402 -23.56435316 14.97772072 -26.5 16.8125 C-27.4796875 17.43769531 -28.459375 18.06289062 -29.46875 18.70703125 C-30.3040625 19.13371094 -31.139375 19.56039062 -32 20 C-32.66 19.67 -33.32 19.34 -34 19 C-30.33030266 15.1295079 -26.48543518 11.99737154 -22.125 8.9375 C-21.53847656 8.51662109 -20.95195312 8.09574219 -20.34765625 7.66210938 C-13.55559113 2.84795333 -8.55109262 -0.60007667 0 0 Z " fill="#DEA53C" transform="translate(409,136)"/>
<path d="M0 0 C3 1 3 1 4.6875 3.9375 C6 7 6 7 6 9 C6.66 9 7.32 9 8 9 C8.27972656 9.556875 8.55945313 10.11375 8.84765625 10.6875 C11.90471381 16.50672211 15.4898615 21.22991115 20 26 C19.34 26.33 18.68 26.66 18 27 C17.67 27.99 17.34 28.98 17 30 C16.649375 29.030625 16.29875 28.06125 15.9375 27.0625 C14.19582053 22.97119634 11.62279768 19.84718969 8.84765625 16.40625 C5.08188733 11.5019928 1.21074911 6.15229489 0 0 Z " fill="#E0A738" transform="translate(91,175)"/>
<path d="M0 0 C0.66 0.33 1.32 0.66 2 1 C-3.58593512 6.07312796 -9.80538473 9.27612796 -16.48046875 12.71875 C-21.75097 15.517954 -26.08557963 18.54121106 -30.41064453 22.66650391 C-32 24 -32 24 -34 24 C-31.25352969 17.59156929 -26.53702521 15.03700215 -20.4375 12.1875 C-9.50869618 7.15987479 -9.50869618 7.15987479 0 0 Z " fill="#DE991C" transform="translate(383,217)"/>
<path d="M0 0 C0.33 0.66 0.66 1.32 1 2 C0.195625 2.12375 -0.60875 2.2475 -1.4375 2.375 C-2.283125 2.58125 -3.12875 2.7875 -4 3 C-4.33 3.66 -4.66 4.32 -5 5 C-6.58220889 5.24077092 -8.16697733 5.46960539 -9.7578125 5.64453125 C-13.44791278 6.22954715 -16.97751372 7.38980166 -20.546875 8.4765625 C-23 9 -23 9 -26 8 C-18.71428571 4.57142857 -18.71428571 4.57142857 -14 5 C-14 4.34 -14 3.68 -14 3 C-9.56270856 0.04180571 -5.24640913 -0.15430615 0 0 Z " fill="#E4A533" transform="translate(216,416)"/>
<path d="M0 0 C0.66 0 1.32 0 2 0 C2 1.32 2 2.64 2 4 C3.32 4 4.64 4 6 4 C4.94434467 7.28426103 3.38339648 8.57151556 0.5 10.25 C-3 12 -3 12 -5 12 C-4.42365861 7.24518354 -2.44931479 4.02951788 0 0 Z " fill="#D99E32" transform="translate(127,547)"/>
<path d="M0 0 C0.66 0 1.32 0 2 0 C5.38455505 5.3902173 7.58781272 10.93422398 9.75390625 16.9140625 C10.90365785 20.02698067 10.90365785 20.02698067 12.71484375 22.7109375 C13.13894531 23.46632813 13.56304687 24.22171875 14 25 C13.67 25.99 13.34 26.98 13 28 C11.68462636 25.56401192 10.37260857 23.1263175 9.0625 20.6875 C8.68931641 19.99720703 8.31613281 19.30691406 7.93164062 18.59570312 C7.57392578 17.92861328 7.21621094 17.26152344 6.84765625 16.57421875 C6.51773682 15.96151123 6.18781738 15.34880371 5.84790039 14.7175293 C5 13 5 13 4 10 C3.319375 9.401875 2.63875 8.80375 1.9375 8.1875 C0 6 0 6 -0.25 2.75 C-0.1675 1.8425 -0.085 0.935 0 0 Z " fill="#DFA43A" transform="translate(300,496)"/>
<path d="M0 0 C0.66 0.33 1.32 0.66 2 1 C-1.49182898 4.59452983 -5.00700747 7.96185351 -9 11 C-9.99 11 -10.98 11 -12 11 C-12.20625 11.763125 -12.4125 12.52625 -12.625 13.3125 C-14.44352933 16.86689823 -16.33825618 17.58014015 -20 19 C-20.99 19 -21.98 19 -23 19 C-19.67274393 15.99319687 -16.33785907 12.99502618 -13 10 C-12.25105469 9.32324219 -11.50210937 8.64648438 -10.73046875 7.94921875 C-3.8648968 1.81877497 -3.8648968 1.81877497 0 0 Z " fill="#E6A333" transform="translate(313,89)"/>
<path d="M0 0 C0.66 0.66 1.32 1.32 2 2 C1.65457899 5.67110236 -0.34523142 8.40023951 -2.3125 11.4375 C-3.20388672 12.82775391 -3.20388672 12.82775391 -4.11328125 14.24609375 C-5.95993384 16.94151834 -7.92572661 19.47698755 -10 22 C-10.66 21.67 -11.32 21.34 -12 21 C-11.566875 20.484375 -11.13375 19.96875 -10.6875 19.4375 C-8.59680969 16.417614 -7.37473935 13.4041165 -6 10 C-5.34 10 -4.68 10 -4 10 C-3.896875 9.278125 -3.79375 8.55625 -3.6875 7.8125 C-2.94013068 4.75508007 -1.71954811 2.61670365 0 0 Z " fill="#DF9C1E" transform="translate(149,525)"/>
<path d="M0 0 C0.33 0.66 0.66 1.32 1 2 C1.53625 2.268125 2.0725 2.53625 2.625 2.8125 C9.14631206 6.07315603 12.50284814 9.33173429 15.82421875 15.85546875 C18.64141072 20.99380227 23.1697456 23.96704956 28 27 C27.01 27.33 26.02 27.66 25 28 C18.01060784 24.13881894 13.15597541 18.34306949 10.19140625 10.99609375 C8.56213676 8.26639963 6.50639074 7.00426049 3.875 5.25 C2.96492188 4.63640625 2.05484375 4.0228125 1.1171875 3.390625 C0.41851563 2.93171875 -0.28015625 2.4728125 -1 2 C-0.67 1.34 -0.34 0.68 0 0 Z " fill="#D59721" transform="translate(29,407)"/>
<path d="M0 0 C0.99 0.495 0.99 0.495 2 1 C2 1.66 2 2.32 2 3 C2.66 3 3.32 3 4 3 C4.2578125 3.86496094 4.515625 4.72992187 4.78125 5.62109375 C6.02889356 9.08010553 7.59001303 11.92639851 9.5 15.0625 C12.67599649 20.29078236 14.96264677 24.94877282 16 31 C12.71389708 27.9528442 11.03793105 24.36714419 9.125 20.375 C6.52414049 15.03711975 3.85961983 9.80113979 0.8125 4.69921875 C0 3 0 3 0 0 Z " fill="#E0A43A" transform="translate(314,524)"/>
<path d="M0 0 C-2.61941217 1.74627478 -4.03824877 2.38722388 -7 3 C-6.67 3.66 -6.34 4.32 -6 5 C-13.23972193 7.02712214 -20.55444468 8.01701938 -28 9 C-27 7 -27 7 -25.29760742 6.23803711 C-24.57420166 6.0035083 -23.8507959 5.76897949 -23.10546875 5.52734375 C-21.91920898 5.13772461 -21.91920898 5.13772461 -20.70898438 4.74023438 C-19.87689453 4.47533203 -19.04480469 4.21042969 -18.1875 3.9375 C-17.36701172 3.66873047 -16.54652344 3.39996094 -15.70117188 3.12304688 C-5.6185023 -0.15606951 -5.6185023 -0.15606951 0 0 Z " fill="#D89C2B" transform="translate(389,56)"/>
<path d="M0 0 C1.56919503 4.70758509 0.77306638 8.24975731 -1.18359375 12.6796875 C-2.41567709 15.14385418 -3.68115082 17.58129874 -5 20 C-5.99 20 -6.98 20 -8 20 C-6.81417599 15.25670395 -5.21193082 11.19937478 -2.953125 6.8671875 C-1.81298376 4.63363212 -0.88013137 2.34701698 0 0 Z " fill="#E7A72E" transform="translate(169,507)"/>
<path d="M0 0 C1.65 0 3.3 0 5 0 C5.33 0.99 5.66 1.98 6 3 C18.43362986 5.43383621 18.43362986 5.43383621 31 7 C31 7.33 31 7.66 31 8 C20.73159081 8.28970433 11.68339581 7.56756688 2 4 C2 3.34 2 2.68 2 2 C1.34 1.34 0.68 0.68 0 0 Z " fill="#DEA536" transform="translate(54,432)"/>
<path d="M0 0 C1.47410394 2.94820788 0.39716412 4.54290209 -0.625 7.625 C-2.40939676 12.76753232 -4.39799821 17.8344197 -8 22 C-8.66 22 -9.32 22 -10 22 C-9.47925628 17.52160398 -8.36421359 14.7916633 -6 11 C-4.92819934 9.06762947 -3.8657009 7.13007055 -2.8125 5.1875 C-2.28269531 4.21167969 -1.75289063 3.23585938 -1.20703125 2.23046875 C-0.80871094 1.49441406 -0.41039062 0.75835938 0 0 Z " fill="#E4A42C" transform="translate(500,581)"/>
<path d="M0 0 C0.66 0.33 1.32 0.66 2 1 C-2.90170102 7.84315906 -8.16619968 10.38873323 -16 13 C-16 13.66 -16 14.32 -16 15 C-18.5 16.625 -18.5 16.625 -21 18 C-19.4603914 13.88504612 -16.81010163 12.09464071 -13.3125 9.5625 C-12.5076416 8.97480835 -12.5076416 8.97480835 -11.68652344 8.37524414 C-10.13034719 7.2418807 -8.56534434 6.1206669 -7 5 C-6.22527344 4.44054687 -5.45054687 3.88109375 -4.65234375 3.3046875 C-3.10768165 2.19456074 -1.55501457 1.09557844 0 0 Z " fill="#E1A438" transform="translate(346,172)"/>
<path d="M0 0 C0.33 0 0.66 0 1 0 C1.02934711 3.49998201 1.04691445 6.99993179 1.0625 10.5 C1.07087891 11.48226563 1.07925781 12.46453125 1.08789062 13.4765625 C1.10659124 19.08674757 0.838879 24.45150899 0 30 C-0.33 30 -0.66 30 -1 30 C-2.57446809 9.46808511 -2.57446809 9.46808511 0 0 Z " fill="#E8A42F" transform="translate(535,421)"/>
<path d="M0 0 C0 0.33 0 0.66 0 1 C-0.77085937 1.12117188 -1.54171875 1.24234375 -2.3359375 1.3671875 C-3.33882813 1.53476562 -4.34171875 1.70234375 -5.375 1.875 C-6.87160156 2.11863281 -6.87160156 2.11863281 -8.3984375 2.3671875 C-11.1425115 2.7958802 -11.1425115 2.7958802 -13 5 C-15.3828125 5.1953125 -15.3828125 5.1953125 -18.125 5.125 C-19.49011719 5.09792969 -19.49011719 5.09792969 -20.8828125 5.0703125 C-21.58148438 5.04710937 -22.28015625 5.02390625 -23 5 C-22 3 -22 3 -18.8671875 1.89453125 C-17.5388601 1.52510686 -16.20796606 1.16482023 -14.875 0.8125 C-14.22273438 0.62236328 -13.57046875 0.43222656 -12.8984375 0.23632812 C-8.13428863 -1.04450952 -4.7308573 -0.96460337 0 0 Z " fill="#E4A53C" transform="translate(404,55)"/>
<path d="M0 0 C0.66 0 1.32 0 2 0 C2.24915939 1.76813112 2.47366632 3.53974982 2.6875 5.3125 C2.81511719 6.29863281 2.94273437 7.28476562 3.07421875 8.30078125 C3 11 3 11 1.70703125 12.85546875 C0 14 0 14 -3 14 C-2.40380045 9.13103697 -1.43023178 4.67209049 0 0 Z " fill="#D49A24" transform="translate(150,532)"/>
<path d="M0 0 C0.66 0.33 1.32 0.66 2 1 C1.21496094 1.7734375 0.42992187 2.546875 -0.37890625 3.34375 C-5.63298824 8.5442872 -10.79946351 13.74386916 -15.59765625 19.375 C-17.30288091 21.35097064 -19.11763176 23.19292649 -21 25 C-21 21.35923082 -20.37255713 20.96921029 -17.9296875 18.41796875 C-17.28 17.73283203 -16.6303125 17.04769531 -15.9609375 16.34179688 C-15.27257812 15.63087891 -14.58421875 14.91996094 -13.875 14.1875 C-12.87726563 13.13852539 -12.87726563 13.13852539 -11.859375 12.06835938 C-7.96443564 7.98631019 -4.00504575 3.97385381 0 0 Z " fill="#D4962A" transform="translate(273,119)"/>
<path d="M0 0 C2.375 0.625 2.375 0.625 5 2 C6.1875 5.0625 6.1875 5.0625 7 8 C7.66 8.33 8.32 8.66 9 9 C10.01765927 10.99107248 11.01577854 12.99218823 12 15 C12.5775 15.721875 13.155 16.44375 13.75 17.1875 C14.1625 17.785625 14.575 18.38375 15 19 C14.67 19.99 14.34 20.98 14 22 C13.68248779 21.52578613 13.36497559 21.05157227 13.0378418 20.56298828 C11.59355002 18.41301391 10.14065195 16.26899468 8.6875 14.125 C8.18798828 13.37863281 7.68847656 12.63226563 7.17382812 11.86328125 C6.68720703 11.14785156 6.20058594 10.43242187 5.69921875 9.6953125 C5.25408936 9.03547363 4.80895996 8.37563477 4.3503418 7.69580078 C2.92628424 5.73031475 2.92628424 5.73031475 0 4 C0 2.68 0 1.36 0 0 Z " fill="#DEA73D" transform="translate(269,444)"/>
<path d="M0 0 C4.34037775 0.49514018 7.08612375 3.31113872 10.25 6.0625 C10.80429687 6.53494141 11.35859375 7.00738281 11.9296875 7.49414062 C13.291749 8.65658967 14.64659956 9.82747855 16 11 C14.68 11.33 13.36 11.66 12 12 C11.67 11.34 11.34 10.68 11 10 C9.26473828 9.27970268 7.52902258 8.56043513 5.7890625 7.8515625 C3.28583614 6.66007048 1.69778852 5.1731693 0 3 C0 2.01 0 1.02 0 0 Z " fill="#E29E23" transform="translate(453,362)"/>
<path d="M0 0 C0.66 0 1.32 0 2 0 C-1.20810636 19.37015733 -1.20810636 19.37015733 -5 27 C-5.66 27.33 -6.32 27.66 -7 28 C-6.27003051 23.99645601 -5.2116074 20.15262889 -4.0625 16.25 C-2.50209168 10.85949853 -1.13671929 5.49414323 0 0 Z " fill="#E39A19" transform="translate(412,160)"/>
<path d="M0 0 C0.66 0 1.32 0 2 0 C2 0.66 2 1.32 2 2 C2.99 2.33 3.98 2.66 5 3 C6.03928548 4.72131657 7.07208874 6.4488841 8.01171875 8.2265625 C9.0145936 10.1530357 9.0145936 10.1530357 10.8125 12.1875 C12 14 12 14 11.6875 16.25 C11.460625 16.8275 11.23375 17.405 11 18 C8.35247996 15.42215154 6.05567935 13.08351902 4 10 C4 9.34 4 8.68 4 8 C3.37315717 6.60639406 2.70084922 5.23289536 2 3.875 C1.62875 3.15054688 1.2575 2.42609375 0.875 1.6796875 C0.58625 1.12539063 0.2975 0.57109375 0 0 Z " fill="#E0A83B" transform="translate(343,577)"/>
<path d="M0 0 C1.4540625 0.0309375 1.4540625 0.0309375 2.9375 0.0625 C3.47375 1.0525 4.01 2.0425 4.5625 3.0625 C6.65418688 6.75681028 9.12955336 10.04209198 11.765625 13.36328125 C12.9375 15.0625 12.9375 15.0625 12.9375 17.0625 C12.2775 17.0625 11.6175 17.0625 10.9375 17.0625 C9.77180596 15.52390132 8.6789716 13.92968037 7.625 12.3125 C5.06031115 8.53744863 2.77992314 5.62411543 -1.0625 3.0625 C-2.0525 2.4025 -3.0425 1.7425 -4.0625 1.0625 C-3.0625 0.0625 -3.0625 0.0625 0 0 Z " fill="#D79725" transform="translate(245.0625,411.9375)"/>
<path d="M0 0 C5.28101563 0.64854578 9.29709682 3.3368491 13.5625 6.4375 C13.8925 7.0975 14.2225 7.7575 14.5625 8.4375 C11.85305416 7.4311344 9.53826908 6.42134605 7.125 4.8125 C4.0663848 3.17129184 1.98362846 3.19881662 -1.4375 3.4375 C-1.4375 6.7375 -1.4375 10.0375 -1.4375 13.4375 C-3.55045256 10.26807116 -3.69000929 9.44120047 -3.625 5.8125 C-3.61533203 4.61753906 -3.61533203 4.61753906 -3.60546875 3.3984375 C-3.35473833 0.47130562 -2.91133439 0.5225472 0 0 Z " fill="#DA981F" transform="translate(87.4375,153.5625)"/>
<path d="M0 0 C0.66 0.66 1.32 1.32 2 2 C1.21753906 2.84304688 0.43507813 3.68609375 -0.37109375 4.5546875 C-1.39334825 5.66134834 -2.41547716 6.76812521 -3.4375 7.875 C-3.95376953 8.43058594 -4.47003906 8.98617187 -5.00195312 9.55859375 C-7.82104736 12.54749315 -7.82104736 12.54749315 -10 16 C-10.66 16 -11.32 16 -12 16 C-12.28875 16.639375 -12.5775 17.27875 -12.875 17.9375 C-14 20 -14 20 -16 21 C-16 19.68 -16 18.36 -16 17 C-15.21625 16.7525 -14.4325 16.505 -13.625 16.25 C-10.46019679 14.74295085 -10.50027403 14.04222234 -9 11 C-7.4947579 9.05459685 -5.9496906 7.13962873 -4.375 5.25 C-3.55773437 4.26515625 -2.74046875 3.2803125 -1.8984375 2.265625 C-1.27195312 1.51796875 -0.64546875 0.7703125 0 0 Z " fill="#E2991C" transform="translate(468,633)"/>
<path d="M0 0 C0 0.66 0 1.32 0 2 C-2.00839751 3.68359732 -4.01970582 5.25870136 -6.125 6.8125 C-7.27437206 7.67192865 -8.42281364 8.53260313 -9.5703125 9.39453125 C-10.1365332 9.81943848 -10.70275391 10.2443457 -11.28613281 10.68212891 C-13.92441287 12.71082346 -16.46002661 14.84990094 -19 17 C-19.66 16.67 -20.32 16.34 -21 16 C-18.08390034 11.96232355 -15.17129085 9.67592243 -11 7 C-8.63083386 5.15420783 -6.28741755 3.2802904 -3.953125 1.390625 C-2 0 -2 0 0 0 Z " fill="#DD961D" transform="translate(364,110)"/>
<path d="M0 0 C0.66 0 1.32 0 2 0 C2.9765625 1.79036458 3.953125 3.58072917 4.9296875 5.37109375 C5.91410024 7.16618315 5.91410024 7.16618315 8 8 C8 9.65 8 11.3 8 13 C8.66 13 9.32 13 10 13 C10.33 14.32 10.66 15.64 11 17 C10.34 17 9.68 17 9 17 C8.67 16.34 8.34 15.68 8 15 C7.01 14.67 6.02 14.34 5 14 C4.87625 12.9790625 4.87625 12.9790625 4.75 11.9375 C4.07208032 9.28231457 3.31087552 7.63219434 1.9375 5.3125 C0 2 0 2 0 0 Z " fill="#DFA83B" transform="translate(330,555)"/>
<path d="M0 0 C0.66 0.33 1.32 0.66 2 1 C2 1.99 2 2.98 2 4 C2.66 4 3.32 4 4 4 C4 11.26 4 18.52 4 26 C3.67 26 3.34 26 3 26 C2.96261719 24.90300781 2.92523438 23.80601562 2.88671875 22.67578125 C2.82103347 21.22132143 2.75458701 19.76689584 2.6875 18.3125 C2.65366211 17.2306543 2.65366211 17.2306543 2.61914062 16.12695312 C2.38921005 11.54924436 1.59389229 8.89083844 -1 5 C-0.6875 2.1875 -0.6875 2.1875 0 0 Z " fill="#E2A635" transform="translate(178,474)"/>
<path d="M0 0 C5.85479956 4.65722693 9.92592826 8.56790959 12 16 C12.66 16 13.32 16 14 16 C13.67 16.99 13.34 17.98 13 19 C0 3.38888889 0 3.38888889 0 0 Z " fill="#DFA73E" transform="translate(368,612)"/>
<path d="M0 0 C6.49850211 0.51553879 12.66226532 1.46667709 19 3 C19 3.33 19 3.66 19 4 C16.58303128 4.05411124 14.16728213 4.09372278 11.75 4.125 C11.06808594 4.14175781 10.38617187 4.15851563 9.68359375 4.17578125 C5.9391765 4.21213482 3.17647273 4.07944349 0 2 C0 1.34 0 0.68 0 0 Z " fill="#E19E29" transform="translate(507,395)"/>
<path d="M0 0 C0.66 0.66 1.32 1.32 2 2 C-0.61970793 3.53064939 -3.24501643 5.04969748 -5.875 6.5625 C-6.99455078 7.21895508 -6.99455078 7.21895508 -8.13671875 7.88867188 C-8.85214844 8.29794922 -9.56757813 8.70722656 -10.3046875 9.12890625 C-11.2944458 9.70233765 -11.2944458 9.70233765 -12.30419922 10.28735352 C-12.86381348 10.52252686 -13.42342773 10.7577002 -14 11 C-14.66 10.67 -15.32 10.34 -16 10 C-13.16569547 6.7457985 -11.31392226 5.4793247 -7 5 C-7 4.34 -7 3.68 -7 3 C-3.535 2.505 -3.535 2.505 0 2 C0 1.34 0 0.68 0 0 Z " fill="#E6A839" transform="translate(372,222)"/>
<path d="M0 0 C0 4.85089963 -2.40896448 7.38147446 -5.6875 10.8125 C-6.450625 11.534375 -7.21375 12.25625 -8 13 C-8.99 12.67 -9.98 12.34 -11 12 C-7.49102731 7.81576108 -3.91939465 3.80411834 0 0 Z " fill="#E2A63A" transform="translate(261,134)"/>
<path d="M0 0 C0.33 0 0.66 0 1 0 C0.6083965 5.95507399 -0.37124595 10.62819824 -3 16 C-3.33 16 -3.66 16 -4 16 C-4 12.7 -4 9.4 -4 6 C-3.34 6 -2.68 6 -2 6 C-1.7834375 5.071875 -1.7834375 5.071875 -1.5625 4.125 C-1 2 -1 2 0 0 Z " fill="#E2A538" transform="translate(130,222)"/>
<path d="M0 0 C0.66 0 1.32 0 2 0 C0.51420205 3.38731138 -1.44110404 5.78511129 -3.9375 8.5 C-6.45053188 11.24319741 -8.81551882 13.98692252 -11 17 C-11.66 16.67 -12.32 16.34 -13 16 C-11.03936101 13.53825477 -9.07527844 11.07941774 -7.10546875 8.625 C-5.87282201 7.08819367 -4.64427031 5.54805558 -3.42578125 4 C-2.32872827 2.62950739 -1.17055742 1.30827006 0 0 Z " fill="#D9971A" transform="translate(327,141)"/>
<path d="M0 0 C0.99 0.33 1.98 0.66 3 1 C1.2527456 2.29537826 -0.49791517 3.58616273 -2.25 4.875 C-3.22453125 5.59429687 -4.1990625 6.31359375 -5.203125 7.0546875 C-8 9 -8 9 -10.28125 10.125 C-12.56657873 11.28844008 -13.06835877 12.67089693 -14 15 C-14 12 -14 12 -11.9375 9.6875 C-2.97435897 1.48717949 -2.97435897 1.48717949 0 0 Z " fill="#E6A534" transform="translate(310,55)"/>
<path d="M0 0 C0.99 0 1.98 0 3 0 C3 1.65 3 3.3 3 5 C-2.75 8 -2.75 8 -5 8 C-5.33 8.99 -5.66 9.98 -6 11 C-6.33 10.01 -6.66 9.02 -7 8 C-6.360625 7.566875 -5.72125 7.13375 -5.0625 6.6875 C-2.73253997 5.08760823 -2.73253997 5.08760823 -2 2 C-1.34 2 -0.68 2 0 2 C0 1.34 0 0.68 0 0 Z " fill="#E7A631" transform="translate(449,650)"/>
<path d="M0 0 C0.66 1.32 1.32 2.64 2 4 C4.71241734 8.30245509 7.69857032 12.14833203 11 16 C10.67 16.66 10.34 17.32 10 18 C7 16 7 16 5.5625 13.5 C4.04444176 10.58767921 4.04444176 10.58767921 0 9 C0 6.03 0 3.06 0 0 Z " fill="#E8A532" transform="translate(346,243)"/>
<path d="M0 0 C0.99 0.33 1.98 0.66 3 1 C1.58163643 6.1576857 -0.67391575 10.79975258 -4 15 C-4.66 15 -5.32 15 -6 15 C-4.87548273 12.0280615 -3.77706209 9.66559313 -2 7 C-1.29187186 4.67891331 -0.61975848 2.34622853 0 0 Z " fill="#E4A116" transform="translate(402,189)"/>
<path d="M0 0 C0.66 0 1.32 0 2 0 C2.33 1.65 2.66 3.3 3 5 C4.32 4.67 5.64 4.34 7 4 C5.63016497 7.16115776 5.0109362 7.9927092 2 10 C1.67 9.01 1.34 8.02 1 7 C0.34 7 -0.32 7 -1 7 C-0.67 4.69 -0.34 2.38 0 0 Z " fill="#EBAB1B" transform="translate(131,543)"/>
<path d="M0 0 C-3.16566573 2.11044382 -5.51197415 2.75552077 -9.1875 3.625 C-10.27417969 3.88539063 -11.36085937 4.14578125 -12.48046875 4.4140625 C-13.31191406 4.60742188 -14.14335937 4.80078125 -15 5 C-15 4.34 -15 3.68 -15 3 C-14.401875 2.71125 -13.80375 2.4225 -13.1875 2.125 C-10.80672208 0.95257974 -10.80672208 0.95257974 -8 -1 C-4.37673261 -2.2077558 -3.35853631 -1.54311128 0 0 Z " fill="#E4A020" transform="translate(227,416)"/>
<path d="M0 0 C-1.40001418 4.20004254 -4.44284145 5.7595955 -7.9375 8.1875 C-8.58396484 8.65091797 -9.23042969 9.11433594 -9.89648438 9.59179688 C-14.73020987 13 -14.73020987 13 -17 13 C-17 12.34 -17 11.68 -17 11 C-15.2421875 9.66796875 -15.2421875 9.66796875 -12.875 8.1875 C-9.94003483 6.3063491 -7.19160173 4.4148628 -4.5625 2.125 C-2 0 -2 0 0 0 Z " fill="#E5A534" transform="translate(434,666)"/>
<path d="M0 0 C2 1 2 1 2.8515625 3.50390625 C3.10679688 4.51324219 3.36203125 5.52257812 3.625 6.5625 C3.88539062 7.57441406 4.14578125 8.58632813 4.4140625 9.62890625 C4.60742188 10.41136719 4.80078125 11.19382812 5 12 C4.01 12.33 3.02 12.66 2 13 C-0.24828052 8.50343896 -0.16682272 4.92127034 0 0 Z " fill="#D99F31" transform="translate(25,395)"/>
<path d="M0 0 C1.13199353 0.9080162 2.25532363 1.82683826 3.375 2.75 C4.00148438 3.26046875 4.62796875 3.7709375 5.2734375 4.296875 C7.09642411 6.09511518 7.92451831 7.69940438 9 10 C9.66 10.66 10.32 11.32 11 12 C9.125 11.75 9.125 11.75 7 11 C6.30062468 9.68352881 5.63270867 8.34977849 5 7 C4.01 6.67 3.02 6.34 2 6 C2 5.01 2 4.02 2 3 C1.34 3 0.68 3 0 3 C0 2.01 0 1.02 0 0 Z " fill="#E7A738" transform="translate(381,288)"/>
<path d="M0 0 C4.24908336 1.59846469 6.82225739 4.8130392 9.75 8.125 C10.25660156 8.68832031 10.76320313 9.25164062 11.28515625 9.83203125 C12.52884532 11.21651531 13.76516305 12.60761488 15 14 C14.67 14.66 14.34 15.32 14 16 C9.09222228 11.22647759 4.28953003 6.34561493 0 1 C0 0.67 0 0.34 0 0 Z " fill="#DF9B1C" transform="translate(373,278)"/>
<path d="M0 0 C0.66 0.33 1.32 0.66 2 1 C-1.63 4.63 -5.26 8.26 -9 12 C-9.66 11.67 -10.32 11.34 -11 11 C-9.52267049 7.1052222 -7.54120367 6.02354496 -4 4 C-2.63015802 2.70420353 -1.2848951 1.38007251 0 0 Z " fill="#DAA03C" transform="translate(78,308)"/>
<path d="M0 0 C0.33 0.99 0.66 1.98 1 3 C-0.36328125 5.48046875 -0.36328125 5.48046875 -2.3125 8.1875 C-2.94800781 9.08855469 -3.58351562 9.98960937 -4.23828125 10.91796875 C-5.11033203 11.94857422 -5.11033203 11.94857422 -6 13 C-6.66 13 -7.32 13 -8 13 C-6.53181332 9.89257577 -4.79975 7.09528261 -2.875 4.25 C-2.33617187 3.45078125 -1.79734375 2.6515625 -1.2421875 1.828125 C-0.62730469 0.92320312 -0.62730469 0.92320312 0 0 Z " fill="#DF9818" transform="translate(162,526)"/>
<path d="M0 0 C3 0 3 0 5.625 2.375 C8 5 8 5 9 7 C5.7 6.01 2.4 5.02 -1 4 C-0.67 2.68 -0.34 1.36 0 0 Z " fill="#EAA635" transform="translate(467,374)"/>
<path d="M0 0 C4.13937592 3.30015998 7.58662205 6.17324411 10 11 C7.525 10.01 7.525 10.01 5 9 C5 8.01 5 7.02 5 6 C4.34 6 3.68 6 3 6 C3 5.34 3 4.68 3 4 C2.01 3.67 1.02 3.34 0 3 C0 2.01 0 1.02 0 0 Z " fill="#E6A738" transform="translate(401,310)"/>
<path d="M0 0 C0.66 0.33 1.32 0.66 2 1 C1.05065487 2.67180274 0.09026687 4.33733936 -0.875 6 C-1.40867187 6.928125 -1.94234375 7.85625 -2.4921875 8.8125 C-2.98976563 9.534375 -3.48734375 10.25625 -4 11 C-4.66 11 -5.32 11 -6 11 C-5.39305845 7.84669446 -4.3583335 5.81111133 -2.4375 3.25 C-1.98246094 2.63640625 -1.52742188 2.0228125 -1.05859375 1.390625 C-0.70925781 0.93171875 -0.35992187 0.4728125 0 0 Z " fill="#E69C22" transform="translate(496,592)"/>
<path d="M0 0 C0.33 0 0.66 0 1 0 C0.43179252 5.45479185 -0.94637945 9.91059256 -3 15 C-4.31538327 10.84228506 -3.34433068 8.1120703 -2 4 C-1.34 4 -0.68 4 0 4 C0 2.68 0 1.36 0 0 Z " fill="#E9A731" transform="translate(189,489)"/>
<path d="M0 0 C0.99 0.33 1.98 0.66 3 1 C0.03 4.63 -2.94 8.26 -6 12 C-6 8.36804504 -5.04546845 7.25286089 -3 4.3125 C-2.443125 3.50425781 -1.88625 2.69601563 -1.3125 1.86328125 C-0.879375 1.24839844 -0.44625 0.63351563 0 0 Z " fill="#E7A834" transform="translate(323,142)"/>
<path d="M0 0 C3.27723056 1.05339554 4.60460094 2.63763259 6.3125 5.5 C7.1478125 7.2325 7.1478125 7.2325 8 9 C7.67 9.66 7.34 10.32 7 11 C5.82750647 9.54634731 4.66216184 8.08692581 3.5 6.625 C2.52546875 5.40683594 2.52546875 5.40683594 1.53125 4.1640625 C0 2 0 2 0 0 Z " fill="#DCA63B" transform="translate(358,599)"/>
<path d="M0 0 C0.33 0.66 0.66 1.32 1 2 C0.06421005 4.35981813 -0.93347808 6.69631264 -2 9 C-1.34 9 -0.68 9 0 9 C0 9.66 0 10.32 0 11 C-1.65 11.33 -3.3 11.66 -5 12 C-4.42365861 7.24518354 -2.44931479 4.02951788 0 0 Z " fill="#D09124" transform="translate(127,547)"/>
<path d="M0 0 C0.33 0 0.66 0 1 0 C1 1.98 1 3.96 1 6 C1.66 6.33 2.32 6.66 3 7 C0.03 9.475 0.03 9.475 -3 12 C-2.01 8.04 -1.02 4.08 0 0 Z " fill="#D9A542" transform="translate(126,503)"/>
<path d="M0 0 C1.32 0.66 2.64 1.32 4 2 C2.54618103 2.69699552 1.08677047 3.38233866 -0.375 4.0625 C-1.18710937 4.44535156 -1.99921875 4.82820312 -2.8359375 5.22265625 C-3.55007813 5.47917969 -4.26421875 5.73570312 -5 6 C-5.66 5.67 -6.32 5.34 -7 5 C-4.69 3.35 -2.38 1.7 0 0 Z " fill="#DBA128" transform="translate(372,153)"/>
<path d="M0 0 C0.66 0.66 1.32 1.32 2 2 C1.625 4.125 1.625 4.125 1 6 C0.34 6 -0.32 6 -1 6 C-2.63676257 7.9600281 -2.63676257 7.9600281 -4 10 C-3.43454163 6.04179141 -2.19097652 3.3340947 0 0 Z " fill="#E5A029" transform="translate(149,525)"/>
<path d="M0 0 C0.33 0 0.66 0 1 0 C1.33 3.63 1.66 7.26 2 11 C1.34 11 0.68 11 0 11 C-0.33 12.32 -0.66 13.64 -1 15 C-1.18451025 4.44191344 -1.18451025 4.44191344 0 0 Z " fill="#E6A22B" transform="translate(533,457)"/>
<path d="M0 0 C0.75 1.625 0.75 1.625 1 4 C-2.17808219 9.5890411 -2.17808219 9.5890411 -5 11 C-3.77472971 6.94718288 -2.30119506 3.55639236 0 0 Z " fill="#E1A53D" transform="translate(207,129)"/>
<path d="M0 0 C0.99 0 1.98 0 3 0 C2.50168276 3.68754757 1.89932357 5.60490662 -1 8 C-2 6 -2 6 -1.0625 2.875 C-0.5365625 1.451875 -0.5365625 1.451875 0 0 Z " fill="#E29C24" transform="translate(487,604)"/>
<path d="M0 0 C0.66 0.33 1.32 0.66 2 1 C-1.96 4.465 -1.96 4.465 -6 8 C-6.99 7.01 -7.98 6.02 -9 5 C-7.35 4.67 -5.7 4.34 -4 4 C-4 3.34 -4 2.68 -4 2 C-2.125 0.9375 -2.125 0.9375 0 0 Z " fill="#EAA62C" transform="translate(326,83)"/>
<path d="M0 0 C0.99 0.33 1.98 0.66 3 1 C1.70700306 3.88437779 0.34058637 5.87219421 -2 8 C-2.66 7.67 -3.32 7.34 -4 7 C-2.25 3.125 -2.25 3.125 0 2 C0 1.34 0 0.68 0 0 Z " fill="#E09C27" transform="translate(292,70)"/>
<path d="M0 0 C0.33 0 0.66 0 1 0 C0.19642857 8.03571429 0.19642857 8.03571429 -2 12 C-2.05422947 10.5629191 -2.09289723 9.12524538 -2.125 7.6875 C-2.14820313 6.88699219 -2.17140625 6.08648437 -2.1953125 5.26171875 C-2 3 -2 3 0 0 Z " fill="#E59F2C" transform="translate(172,495)"/>
<path d="M0 0 C3.3 1.65 6.6 3.3 10 5 C10 5.33 10 5.66 10 6 C6.29706315 6.33663062 4.60465619 6.47736015 1.625 4.125 C0 2 0 2 0 0 Z " fill="#E7A42D" transform="translate(478,382)"/>
<path d="M0 0 C0.66 0.33 1.32 0.66 2 1 C-0.64 3.97 -3.28 6.94 -6 10 C-6 6.41087588 -5.33563446 5.89142971 -3 3.3125 C-2.443125 2.68988281 -1.88625 2.06726563 -1.3125 1.42578125 C-0.879375 0.95527344 -0.44625 0.48476563 0 0 Z " fill="#E0A73B" transform="translate(42,345)"/>
<path d="M0 0 C0.33 0.66 0.66 1.32 1 2 C-0.98 4.97 -2.96 7.94 -5 11 C-5.33 9.68 -5.66 8.36 -6 7 C-5.01 6.67 -4.02 6.34 -3 6 C-1.84478498 3.52869082 -1.84478498 3.52869082 -1 1 C-0.67 0.67 -0.34 0.34 0 0 Z " fill="#E6A432" transform="translate(310,160)"/>
<path d="M0 0 C0.66 0.99 1.32 1.98 2 3 C-0.3125 5.0625 -0.3125 5.0625 -3 7 C-3.99 6.67 -4.98 6.34 -6 6 C-5.34 6 -4.68 6 -4 6 C-4 4.68 -4 3.36 -4 2 C-2.68 1.34 -1.36 0.68 0 0 Z " fill="#E6AB33" transform="translate(342,71)"/>
<path d="M0 0 C1.98 0 3.96 0 6 0 C6 0.99 6 1.98 6 3 C2.98968256 3.93423645 2.13349732 4.04449911 -1 3 C-0.67 2.01 -0.34 1.02 0 0 Z " fill="#DFA829" transform="translate(349,36)"/>
<path d="M0 0 C0.33 0.99 0.66 1.98 1 3 C-0.40445835 5.2636564 -2.1967913 7.0208685 -4 9 C-4.33 8.01 -4.66 7.02 -5 6 C-3.59554165 3.7363436 -1.8032087 1.9791315 0 0 Z " fill="#E7A937" transform="translate(140,539)"/>
<path d="M0 0 C0.33 0 0.66 0 1 0 C0.88541307 1.43836751 0.75790884 2.87570966 0.625 4.3125 C0.55539062 5.11300781 0.48578125 5.91351562 0.4140625 6.73828125 C0 9 0 9 -2 12 C-2.17835515 7.45194365 -1.99785435 4.1205746 0 0 Z " fill="#E8A531" transform="translate(520,526)"/>
<path d="M0 0 C0.66 0 1.32 0 2 0 C2 0.99 2 1.98 2 3 C2.66 3 3.32 3 4 3 C3.34 4.32 2.68 5.64 2 7 C1.34 7 0.68 7 0 7 C0 4.69 0 2.38 0 0 Z " fill="#E6A22A" transform="translate(127,502)"/>
<path d="M0 0 C0.33 0 0.66 0 1 0 C1.08131463 1.43655854 1.13933559 2.8744483 1.1875 4.3125 C1.23970703 5.51326172 1.23970703 5.51326172 1.29296875 6.73828125 C0.93801608 9.47851584 0.10633718 10.29171079 -2 12 C-2.26252625 7.66831683 -1.29243536 4.1196377 0 0 Z " fill="#D59B33" transform="translate(123,241)"/>
<path d="M0 0 C1.60031344 3.20062687 0.03173691 5.72271806 -1 9 C-1.66 9 -2.32 9 -3 9 C-3.26218749 5.85375007 -3.24754367 4.38162983 -1.5 1.6875 C-1.005 1.130625 -0.51 0.57375 0 0 Z " fill="#E1A02D" transform="translate(512,554)"/>
<path d="M0 0 C0.66 0 1.32 0 2 0 C4.1519437 3.22791555 4.20086443 4.28400809 4 8 C2.68 7.34 1.36 6.68 0 6 C0 4.02 0 2.04 0 0 Z " fill="#E2AA41" transform="translate(300,496)"/>
<path d="M0 0 C2.4375 0.75 2.4375 0.75 5 2 C5.8125 4.125 5.8125 4.125 6 6 C3.03 5.505 3.03 5.505 0 5 C0 3.33333333 0 1.66666667 0 0 Z " fill="#E5A92E" transform="translate(269,444)"/>
<path d="M0 0 C3.81684226 1.55500981 6.19195732 4.03595495 9 7 C5.56072421 5.7580393 2.74792181 4.44259716 0 2 C0 1.34 0 0.68 0 0 Z " fill="#DAA33D" transform="translate(120,212)"/>
<path d="M0 0 C1.1875 1.6875 1.1875 1.6875 2 4 C0.625 6.75 0.625 6.75 -1 9 C-2.0326802 6.21176345 -2.04509293 5.1322726 -1.0625 2.25 C-0.711875 1.5075 -0.36125 0.765 0 0 Z " fill="#D79E3B" transform="translate(151,535)"/>
<path d="M0 0 C0.99 0.33 1.98 0.66 3 1 C2.34 2.98 1.68 4.96 1 7 C0.34 6.34 -0.32 5.68 -1 5 C-0.625 2.375 -0.625 2.375 0 0 Z " fill="#E7981D" transform="translate(402,189)"/>
</svg>
